<?xml version="1.0" standalone="no"?>
<!DOCTYPE svg PUBLIC "-//W3C//DTD SVG 1.1//EN" "http://www.w3.org/Graphics/SVG/1.1/DTD/svg11.dtd" >
<svg xmlns="http://www.w3.org/2000/svg" xmlns:xlink="http://www.w3.org/1999/xlink" version="1.1">
<metadata></metadata>
<defs>
<font id="clarendon_urwregular" horiz-adv-x="1271" >
<font-face units-per-em="2048" ascent="1366" descent="-682" />
<missing-glyph horiz-adv-x="512" />
<glyph unicode="&#xfb01;" horiz-adv-x="1331" d="M31 0v137h80q73 0 95.5 23.5t22.5 97.5v557h-198v141h198v33q0 128 27 199.5t94 122.5q118 90 346 90q192 0 300 -60.5t108 -169.5q0 -61 -37.5 -96t-103.5 -35t-105 31.5t-39 85.5q0 26 8 44t31 44q-73 31 -143 31q-129 0 -184.5 -61t-55.5 -203v-56h643v-698 q0 -74 23 -97.5t96 -23.5h80v-137h-602v137h41q72 0 94 23.5t22 97.5v436q0 74 -22 97.5t-94 23.5h-281v-557q0 -74 22.5 -97.5t92.5 -23.5h41v-137h-600z" />
<glyph unicode="&#xfb02;" horiz-adv-x="1331" d="M51 0v137h66q72 0 94 23.5t22 97.5v557h-182v141h182v33q0 127 27.5 200.5t93.5 123.5q121 90 338 90q118 0 285 -37h147v-1108q0 -74 22.5 -97.5t94.5 -23.5h57v-137h-577v137h41q72 0 94.5 23.5t22.5 97.5v803q-31 25 -42.5 45.5t-11.5 52.5q0 42 39 86q-73 33 -145 33 q-113 0 -174 -55q-37 -31 -51.5 -78t-14.5 -133v-56h275v-141h-275v-557q0 -74 22.5 -97.5t94.5 -23.5h41v-137h-586z" />
<glyph unicode="&#xfb03;" horiz-adv-x="1996" d="M51 0v137h80q73 0 96 23.5t23 97.5v557h-199v141h199v33q0 127 27.5 199t93.5 123q118 90 346 90q200 0 323 -72q115 72 322 72q191 0 299 -61t108 -169q0 -61 -37.5 -96t-103.5 -35t-104.5 31.5t-38.5 85.5q0 26 8 44t31 44q-73 31 -144 31q-129 0 -185 -61t-56 -203 v-56h645v-698q0 -74 22.5 -97.5t94.5 -23.5h79v-137h-600v137h41q72 0 94.5 23.5t22.5 97.5v436q0 74 -22.5 97.5t-94.5 23.5h-282v-557q0 -74 22 -97.5t94 -23.5h41v-137h-602v137h80q73 0 96 23.5t23 97.5v557h-397v-557q0 -74 22 -97.5t92 -23.5h41v-137h-600zM496 956 h399v33q0 146 37 230q-65 33 -106 45t-89 12q-130 0 -185.5 -60.5t-55.5 -203.5v-56z" />
<glyph unicode="&#xfb04;" horiz-adv-x="1992" d="M51 0v137h80q73 0 96 23.5t23 97.5v557h-199v141h199v33q0 127 27.5 199t93.5 123q118 90 346 90q202 0 325 -72q119 74 312 74q115 0 282 -37h148v-1108q0 -74 22.5 -97.5t94.5 -23.5h57v-137h-578v137h41q72 0 94.5 23.5t22.5 97.5v803q-31 25 -42 45.5t-11 52.5 q0 42 39 86q-73 33 -146 33q-127 0 -182 -61.5t-55 -204.5v-56h272v-141h-272v-557q0 -74 22 -97.5t92 -23.5h41v-137h-585v137h65q73 0 96 23.5t23 97.5v557h-399v-557q0 -74 22 -97.5t92 -23.5h41v-137h-600zM496 956h399v33q0 143 37 230q-71 35 -107.5 46t-87.5 11 q-130 0 -185.5 -60.5t-55.5 -203.5v-56z" />
<glyph horiz-adv-x="0" />
<glyph horiz-adv-x="682" />
<glyph unicode=" "  horiz-adv-x="512" />
<glyph unicode="&#x09;" horiz-adv-x="512" />
<glyph unicode="&#xa0;" horiz-adv-x="512" />
<glyph unicode="!" horiz-adv-x="651" d="M244 121q0 60 44.5 103.5t106.5 43.5q63 0 107.5 -44t44.5 -107t-44 -107.5t-106 -44.5q-65 0 -109 45t-44 111zM248 1247q0 160 151 160q78 0 115 -39t37 -121q0 -53 -29 -272q-45 -347 -63 -586h-127q-12 180 -37 414q-31 263 -37 315q-10 82 -10 129z" />
<glyph unicode="&#x22;" horiz-adv-x="739" d="M72 1366h245l-41 -549h-165zM420 1366h246l-41 -549h-164z" />
<glyph unicode="#" d="M45 391l29 199h217l33 211h-213l28 198h213l58 367h225l-62 -367h218l57 367h227l-57 -367h211l-29 -198h-213l-33 -211h215l-30 -199h-215l-62 -391h-233l65 391h-213l-61 -391h-223l63 391h-215zM514 590h213l33 211h-213z" />
<glyph unicode="$" d="M102 315q0 75 43 120.5t113 45.5q63 0 104 -36.5t41 -90.5q0 -121 -141 -121q70 -60 121 -78t168 -26v379q-128 37 -184 58t-101 48q-64 40 -101.5 109t-37.5 147q0 76 35 145.5t98 119.5q55 44 116 65t175 39v154h137v-154q118 -12 180.5 -31.5t116.5 -60.5 q54 -43 84.5 -96t30.5 -105q0 -65 -41.5 -108t-104.5 -43q-60 0 -100.5 34.5t-40.5 85.5q0 101 133 113q-66 49 -110.5 63.5t-147.5 20.5v-367q155 -34 225.5 -58.5t126.5 -65.5q57 -41 89 -107t32 -143q0 -179 -149 -279q-62 -42 -131 -62t-193 -32v-211h-137v213 q-117 9 -189.5 29.5t-134.5 62.5q-125 84 -125 223zM354 938q0 -67 43 -102.5t154 -61.5v336q-103 -17 -150 -58.5t-47 -113.5zM688 133q125 6 185.5 48t60.5 124q0 74 -51 110.5t-195 65.5v-348z" />
<glyph unicode="%" horiz-adv-x="1961" d="M61 887q0 169 110 278t280 109q172 0 280.5 -109.5t108.5 -281.5q0 -173 -108.5 -283.5t-280.5 -110.5q-174 0 -282 110t-108 288zM291 881q0 -135 39.5 -199t122.5 -64t121 62.5t38 196.5q0 140 -38 204t-121 64t-122.5 -65t-39.5 -199zM514 -35l764 1309h164 l-762 -1309h-166zM1116 362q0 169 109.5 278.5t279.5 109.5q173 0 282 -110t109 -284q0 -172 -108.5 -281.5t-280.5 -109.5q-175 0 -283 109.5t-108 287.5zM1343 356q0 -135 39.5 -198.5t124.5 -63.5q83 0 121.5 62t38.5 196q0 140 -38.5 204.5t-123.5 64.5 q-162 0 -162 -265z" />
<glyph unicode="&#x26;" horiz-adv-x="1718" d="M72 381q0 173 133 297q63 61 219 139q-32 79 -43.5 127.5t-11.5 104.5q0 160 98 259t256 99q135 0 215 -71t80 -191q0 -113 -60 -199.5t-202 -179.5q73 -124 120.5 -193t139.5 -188q153 159 153 264q0 25 -26.5 35t-95.5 10h-62v156h649v-156h-71q-103 0 -150 -41 q-19 -17 -31.5 -37.5t-76.5 -134.5q-35 -65 -172 -235q46 -41 78 -56.5t73 -15.5q119 0 164 117q20 66 31 178h155q-3 -142 -18 -217t-53 -135q-47 -74 -132 -116t-186 -42q-75 0 -143.5 24.5t-173.5 90.5q-126 -66 -205.5 -89.5t-177.5 -23.5q-206 0 -339.5 118.5 t-133.5 301.5zM360 436q0 -121 74.5 -198.5t190.5 -77.5q65 0 172 47q-104 129 -156.5 208t-134.5 230q-82 -49 -114 -95t-32 -114zM588 1122q0 -47 17.5 -91.5t58.5 -104.5q94 53 133 99.5t39 107.5q0 52 -33.5 84t-87.5 32q-55 0 -91 -35.5t-36 -91.5z" />
<glyph unicode="'" horiz-adv-x="376" d="M66 1366h245l-41 -549h-164z" />
<glyph unicode="(" horiz-adv-x="782" d="M82 506q0 360 172 600q82 113 180 176.5t287 124.5v-129q-116 -59 -172 -116t-100 -163q-80 -192 -80 -493q0 -327 94 -522q44 -93 97 -144t161 -106v-127q-200 65 -305.5 137.5t-188.5 202.5q-145 230 -145 559z" />
<glyph unicode=")" horiz-adv-x="782" d="M72 -266q115 58 171.5 116t100.5 164q80 189 80 492q0 329 -94 524q-44 93 -97 143.5t-161 104.5v129q200 -66 305 -138.5t188 -201.5q146 -231 146 -561q0 -361 -172 -598q-82 -112 -180.5 -175.5t-286.5 -125.5v127z" />
<glyph unicode="*" horiz-adv-x="1017" d="M123 821q0 26 14.5 49t38.5 35q20 10 37.5 13t79.5 8q61 4 99 13.5t91 33.5q-53 26 -93 36t-101 15q-64 3 -80 5.5t-37 14.5q-49 25 -49 84q0 49 33.5 85t79.5 36q38 0 55 -15t69 -91q34 -50 61.5 -78t76.5 -61q-11 107 -54 190q-30 55 -35.5 70t-5.5 39q0 47 30 75.5 t81 28.5q47 0 79 -28.5t32 -71.5q0 -33 -41 -115q-27 -51 -37 -84.5t-19 -103.5q49 32 77.5 60t62.5 81q44 66 67.5 85t61.5 19q43 0 75.5 -37t32.5 -84q0 -27 -15 -52t-36 -34q-15 -7 -29.5 -9.5t-87.5 -8.5q-66 -6 -101.5 -15t-88.5 -32q57 -29 103.5 -39t154.5 -16 q46 -3 73 -32t27 -73q0 -46 -33 -81.5t-77 -35.5q-37 0 -60 19t-67 86q-39 58 -64.5 84.5t-71.5 56.5q4 -64 14.5 -99t39.5 -91q41 -76 41 -111q0 -43 -31.5 -71.5t-77.5 -28.5q-51 0 -81.5 27t-30.5 71q0 25 5 39.5t35 73.5q29 63 40.5 100.5t15.5 89.5 q-50 -33 -79.5 -61.5t-62.5 -79.5q-43 -67 -66 -86t-61 -19q-44 0 -77 36.5t-33 84.5z" />
<glyph unicode="+" horiz-adv-x="1161" d="M137 547v186h344v334h201v-334h342v-186h-342v-334h-201v334h-344z" />
<glyph unicode="," horiz-adv-x="487" d="M51 125q0 63 42 102t110 39q86 0 139 -60t53 -157q0 -133 -88 -225t-239 -117v90q189 52 192 232q-46 -31 -88 -31q-54 0 -87.5 35.5t-33.5 91.5z" />
<glyph unicode="-" horiz-adv-x="550" d="M0 377v217h551v-217h-551z" />
<glyph unicode="." horiz-adv-x="630" d="M162 121q0 60 44.5 103.5t106.5 43.5q63 0 107.5 -44t44.5 -107t-44 -107.5t-106 -44.5q-65 0 -109 45t-44 111z" />
<glyph unicode="/" horiz-adv-x="755" d="M23 -188l501 1593h150l-500 -1593h-151z" />
<glyph unicode="0" d="M61 629q0 185 73.5 332t204.5 229t296 82q253 0 413 -182.5t160 -471.5t-159.5 -471t-411.5 -182q-258 0 -417 183t-159 481zM377 614q0 -254 62.5 -372.5t195.5 -118.5t195.5 120t62.5 375t-62.5 375.5t-195.5 120.5t-195.5 -121t-62.5 -379z" />
<glyph unicode="1" d="M254 0v145h90q103 0 131.5 21.5t28.5 99.5v652h-250v145q114 9 174 26.5t100 53t80 108.5h164v-989q0 -78 23 -97.5t118 -19.5h107v-145h-766z" />
<glyph unicode="2" d="M92 -8q-6 161 37.5 269t149 192t303.5 170q73 33 111 59t61 59q47 68 47 150q0 107 -77 174.5t-200 67.5q-104 0 -182 -58q-31 -25 -74 -100q46 12 76 12q57 0 95 -39t38 -98q0 -70 -46 -115t-118 -45q-83 0 -137.5 60.5t-54.5 152.5q0 67 33.5 134t93.5 120 q139 117 346 117q119 0 225.5 -35t175.5 -96q54 -47 84.5 -120.5t30.5 -152.5q0 -136 -78 -227q-44 -55 -114.5 -89t-202.5 -65q-203 -42 -296.5 -97.5t-152.5 -164.5q54 31 88 42.5t72 11.5q65 0 274 -41q124 -27 162 -27q84 0 123 57q15 22 23.5 57.5t17.5 116.5h115 q0 -131 -15 -204t-55 -138q-83 -137 -237 -137q-105 0 -234 55q-29 10 -162 80q-60 31 -114 31q-53 0 -78 -30.5t-35 -108.5h-119z" />
<glyph unicode="3" d="M102 311q0 86 51.5 140.5t133.5 54.5q72 0 117 -43t45 -111q0 -78 -56 -121q-35 -25 -114 -28q67 -54 124.5 -75.5t141.5 -21.5q137 0 218 64.5t81 173.5q0 70 -30 126t-81 81q-39 20 -88 27.5t-139 7.5v149q155 2 219 31q100 50 100 168q0 94 -68 151.5t-182 57.5 q-64 0 -109.5 -15.5t-115.5 -60.5q123 -23 123 -129q0 -66 -44.5 -108t-113.5 -42q-75 0 -122.5 46.5t-47.5 119.5q0 90 64.5 163t178 115t251.5 42q218 0 348.5 -88t130.5 -236q0 -58 -25.5 -111.5t-70.5 -88.5q-33 -26 -77 -43t-132 -39q97 -22 148 -43t92 -56 q47 -40 73.5 -98.5t26.5 -124.5q0 -173 -153.5 -277t-411.5 -104q-211 0 -348.5 97.5t-137.5 248.5z" />
<glyph unicode="4" d="M72 344v156l678 749h196v-729h238v-176h-238v-88q0 -67 25 -86q12 -9 42 -17t56 -8h115v-145h-721v145h74q102 0 127.5 18.5t25.5 92.5v88h-618zM293 520h397l6 445z" />
<glyph unicode="5" d="M96 307q0 80 53 132.5t134 52.5q73 0 119.5 -41.5t46.5 -106.5q0 -38 -17.5 -72t-46.5 -53q-33 -23 -106 -26q68 -49 125.5 -68t134.5 -19q146 0 225.5 83t79.5 235q0 142 -79 225.5t-214 83.5q-78 0 -135.5 -28.5t-126.5 -100.5l-137 6l61 660q144 -40 228.5 -53 t207.5 -13q117 0 200 12.5t230 51.5q-38 -103 -80 -153t-116 -81q-129 -57 -316 -57q-87 0 -223 20l-14 -188q104 43 168 58.5t143 15.5q221 0 361.5 -125.5t140.5 -323.5q0 -106 -43 -198.5t-121 -157.5q-137 -113 -371 -113q-225 0 -368.5 95.5t-143.5 246.5z" />
<glyph unicode="6" d="M113 586q0 300 157 499q148 189 435 189q180 0 296.5 -76.5t116.5 -193.5q0 -67 -48 -111.5t-122 -44.5q-66 0 -107.5 37.5t-41.5 97.5q0 43 21 69t73 46q-50 29 -83.5 40t-76.5 11q-133 0 -209 -88q-44 -51 -65 -131.5t-35 -245.5q98 63 162.5 85t150.5 22 q187 0 313 -116t126 -288q0 -189 -141.5 -306.5t-370.5 -117.5q-295 0 -433 191q-57 76 -87.5 189.5t-30.5 242.5zM432 371q0 -126 57 -192t164 -66q104 0 160.5 66t56.5 188q0 120 -58 184.5t-165 64.5q-101 0 -158 -65t-57 -180z" />
<glyph unicode="7" d="M172 676v565h150v-141q69 88 123.5 119.5t138.5 31.5q104 0 239 -51q117 -45 166 -45q41 0 67 19t46 65h129q-13 -82 -26 -121t-44 -94q-24 -43 -151 -229q-152 -221 -197 -404q-18 -71 -24.5 -147.5t-6.5 -223.5v-28h-278q-2 116 1.5 194t19.5 156t40 135t72 127.5 t106 137t150 161.5q3 3 18.5 20.5t34.5 39t39 45.5q-114 -41 -182 -41q-52 0 -187 24q-67 15 -118 15q-46 0 -88 -24t-62 -62q-17 -34 -24.5 -85t-10.5 -159h-141z" />
<glyph unicode="8" d="M82 307q0 122 96 203q47 42 162 86q-115 76 -161 146t-46 167q0 161 139.5 263t360.5 102t358 -85.5t137 -223.5q0 -91 -47.5 -150t-169.5 -119q149 -70 205 -143q62 -83 62 -195q0 -84 -37.5 -160t-100.5 -122q-70 -52 -181.5 -81.5t-237.5 -29.5q-239 0 -389 95 t-150 247zM313 328q0 -100 82 -151.5t242 -51.5q141 0 214 42t73 124q0 55 -37.5 92t-120.5 63l-277 91q-83 -32 -129.5 -87.5t-46.5 -121.5zM381 971q0 -55 40.5 -95.5t115.5 -62.5l231 -61q76 41 108.5 86.5t32.5 111.5q0 86 -72.5 134.5t-201.5 48.5q-117 0 -185.5 -44 t-68.5 -118z" />
<glyph unicode="9" d="M92 846q0 191 144 309.5t376 118.5q278 0 418 -180q61 -76 96 -197.5t35 -257.5q0 -285 -143 -475q-147 -203 -449 -203q-175 0 -288 74.5t-113 189.5q0 68 48.5 112t123.5 44q66 0 106.5 -37.5t40.5 -97.5q0 -41 -20.5 -67t-71.5 -48q49 -28 80.5 -37.5t71.5 -9.5 q66 0 123 25t94 69q41 53 60 134t28 247q-100 -69 -167 -93t-159 -24q-186 0 -310 115.5t-124 288.5zM397 874q0 -123 59 -189.5t167 -66.5q100 0 156.5 64.5t56.5 179.5q0 126 -58 194t-164 68q-105 0 -161 -64.5t-56 -185.5z" />
<glyph unicode=":" horiz-adv-x="651" d="M244 121q0 60 44.5 103.5t106.5 43.5q63 0 107.5 -44t44.5 -107t-44 -107.5t-106 -44.5q-65 0 -109 45t-44 111zM244 770q0 60 45 104t106 44q63 0 107.5 -44.5t44.5 -107.5t-44 -107.5t-106 -44.5q-65 0 -109 45t-44 111z" />
<glyph unicode=";" horiz-adv-x="651" d="M244 125q0 63 42 102t109 39q86 0 139.5 -60t53.5 -157q0 -133 -88.5 -225t-239.5 -117v90q190 52 193 232q-46 -31 -88 -31q-54 0 -87.5 35.5t-33.5 91.5zM268 770q0 60 45 104t107 44q63 0 107 -44.5t44 -107.5t-43.5 -107.5t-105.5 -44.5q-65 0 -109.5 45t-44.5 111z " />
<glyph unicode="&#x3c;" horiz-adv-x="1024" d="M68 578v210l886 447v-248l-622 -305l622 -305v-248z" />
<glyph unicode="=" horiz-adv-x="1161" d="M137 397v176h887v-176h-887zM137 729v176h887v-176h-887z" />
<glyph unicode="&#x3e;" horiz-adv-x="1024" d="M70 129v248l622 305l-622 305v248l886 -447v-210z" />
<glyph unicode="?" horiz-adv-x="1077" d="M100 1030q0 164 130.5 270.5t332.5 106.5q206 0 338.5 -105.5t132.5 -269.5q0 -127 -100 -227q-38 -38 -65.5 -59.5t-151.5 -110.5q-79 -62 -106.5 -111.5t-30.5 -136.5h-131q-3 49 -3 76q0 92 31.5 155t128.5 166q86 94 111.5 139.5t25.5 106.5q0 101 -70.5 164 t-183.5 63q-104 0 -176 -63q-37 -32 -53.5 -68.5t-23.5 -105.5q36 27 60 37t54 10q55 0 92 -38t37 -95q0 -66 -49.5 -112t-120.5 -46q-89 0 -149 72.5t-60 181.5zM358 121q0 60 45 103.5t107 43.5q63 0 107.5 -44t44.5 -107t-44 -107.5t-106 -44.5q-65 0 -109.5 45 t-44.5 111z" />
<glyph unicode="@" horiz-adv-x="1519" d="M74 672q0 200 95.5 366t262 261.5t367.5 95.5q184 0 332.5 -78.5t232.5 -217.5t84 -311q0 -125 -47 -236t-126 -177t-167 -66q-58 0 -101 32t-55 85q-41 -61 -110 -97t-146 -36q-124 0 -207 92.5t-83 232.5q0 167 107 290.5t253 123.5q69 0 123.5 -29t83.5 -83l18 90h164 l-78 -402q-14 -73 -14 -92q0 -33 14 -52.5t39 -19.5q69 0 128 107.5t59 234.5q0 203 -139 332t-359 129q-159 0 -290 -75.5t-206.5 -207.5t-75.5 -292q0 -114 41.5 -220t116.5 -182q148 -151 412 -151q218 0 393 69l39 -147q-191 -72 -428 -72q-323 0 -518 189 q-101 97 -158 232.5t-57 281.5zM592 625q0 -74 40.5 -120t106.5 -46q77 0 134 71t57 168q0 72 -39.5 116t-102.5 44q-79 0 -137.5 -69.5t-58.5 -163.5z" />
<glyph unicode="A" horiz-adv-x="1464" d="M-31 0v156h43q79 0 117 27t64 104l380 1079h289l406 -1079q34 -91 59 -111t105 -20h41v-156h-705v156h111q66 0 89 10t23 41q0 18 -18 67l-58 160h-450l-62 -170q-14 -41 -14 -63q0 -28 21.5 -36.5t87.5 -8.5h106v-156h-635zM520 594h338l-176 475z" />
<glyph unicode="B" horiz-adv-x="1484" d="M51 0v156h80q91 0 112 20t21 105v802q0 86 -21 106.5t-112 20.5h-80v156h785q505 0 505 -336q0 -126 -61 -194.5t-213 -112.5q87 -22 133 -42t86 -54q109 -89 109 -258q0 -180 -117 -271q-71 -54 -178.5 -76t-302.5 -22h-746zM551 154h225q184 0 250 55q34 28 53 76.5 t19 107.5q0 120 -74 178q-41 32 -99.5 45t-166.5 13h-207v-475zM551 784h194q107 0 161 13.5t91 50.5q58 52 58 149q0 110 -64 162q-34 26 -85 37.5t-138 11.5h-217v-424z" />
<glyph unicode="C" horiz-adv-x="1443" d="M72 684q0 200 89.5 365.5t245.5 260.5t345 95q116 0 197.5 -29t201.5 -112l41 122h145v-559h-155q-19 113 -42.5 174.5t-68.5 112.5q-106 125 -276 125q-189 0 -296.5 -150t-107.5 -413q0 -253 103 -385q53 -68 132 -106t171 -38q158 0 252 105q44 49 68 107.5t46 168.5 h174q-17 -148 -45 -228.5t-88 -152.5q-152 -186 -438 -186q-198 0 -356.5 93t-248 258.5t-89.5 371.5z" />
<glyph unicode="D" horiz-adv-x="1646" d="M51 0v156h80q91 0 112 20t21 105v804q0 85 -21 105t-112 20h-80v156h774q357 0 540 -173t183 -511q0 -337 -183.5 -509.5t-539.5 -172.5h-774zM551 156h178q159 0 241 23.5t136 84.5q59 66 91 175.5t32 242.5q0 135 -32 244.5t-91 175.5q-54 61 -136 84.5t-241 23.5h-178 v-1054z" />
<glyph unicode="E" horiz-adv-x="1536" d="M51 0v156h80q91 0 112 20.5t21 106.5v800q0 86 -21 106.5t-112 20.5h-80v156h1342v-543h-156q-3 109 -15.5 171.5t-41.5 113.5q-31 57 -97.5 79.5t-203.5 22.5h-328v-419h78q147 0 180 59q14 24 19.5 52t17.5 136h155v-682h-155q-5 68 -10 109t-15.5 75t-23 50.5 t-37.5 28t-53.5 14t-75.5 2.5h-80v-479h358q64 0 107 6.5t79 25.5t58 47t39 78t27 112t18 155h156v-580h-1342z" />
<glyph unicode="F" horiz-adv-x="1413" d="M51 0v156h80q91 0 112 20.5t21 106.5v800q0 86 -21 106.5t-112 20.5h-80v156h1268v-567h-156q-1 123 -13.5 189.5t-43.5 119.5q-32 57 -98.5 79.5t-202.5 22.5h-254v-419h35q79 0 121 13.5t61 45.5q12 24 17.5 52.5t17.5 135.5h155v-682h-155q-9 117 -19 161.5t-34 74.5 q-20 25 -55 34t-107 9h-37v-352q0 -86 21.5 -106.5t113.5 -20.5h96v-156h-731z" />
<glyph unicode="G" horiz-adv-x="1607" d="M72 684q0 152 52 286.5t142.5 230t216.5 151t269 55.5q125 0 205 -30.5t198 -121.5l55 119h144v-534h-156q-26 107 -53 164t-74 108q-115 127 -283 127q-183 0 -290 -151t-107 -406q0 -256 108.5 -398.5t303.5 -142.5q143 0 239 80q37 32 51.5 68.5t14.5 97.5v76 q0 29 -1 45t-7.5 30.5t-14.5 20.5t-28.5 10.5t-42 5t-62.5 0.5h-86v156h721v-156h-86q-72 0 -91 -22t-19 -104v-457h-150l-72 114q-126 -88 -208.5 -116.5t-208.5 -28.5q-193 0 -348.5 93.5t-243.5 259t-88 370.5z" />
<glyph unicode="H" horiz-adv-x="1687" d="M49 0v156h80q91 0 112 20t21 105v802q0 86 -21 106.5t-112 20.5h-80v156h731v-156h-96q-92 0 -113.5 -20.5t-21.5 -106.5v-301h592v301q0 86 -21.5 106.5t-113.5 20.5h-97v156h731v-156h-79q-91 0 -112.5 -20.5t-21.5 -106.5v-802q0 -85 21.5 -105t112.5 -20h79v-156 h-731v156h97q92 0 113.5 20t21.5 105v337h-592v-337q0 -85 21.5 -105t113.5 -20h96v-156h-731z" />
<glyph unicode="I" horiz-adv-x="843" d="M55 0v156h86q92 0 113.5 20t21.5 105v804q0 85 -21.5 105t-113.5 20h-86v156h736v-156h-89q-92 0 -113.5 -20t-21.5 -105v-804q0 -85 21.5 -105t113.5 -20h89v-156h-736z" />
<glyph unicode="J" horiz-adv-x="1179" d="M51 303q0 92 52 146.5t141 54.5q74 0 119 -45t45 -119q0 -64 -33 -103t-105 -61q47 -35 80.5 -47t87.5 -12q115 0 166 69q23 30 31 73.5t8 135.5v690q0 85 -21 105t-112 20h-96v156h716v-156h-61q-91 0 -112 -20t-21 -105v-649q0 -148 -21.5 -223.5t-80.5 -132.5 q-124 -121 -351 -121q-191 0 -311.5 96t-120.5 248z" />
<glyph unicode="K" horiz-adv-x="1576" d="M51 0v156h80q91 0 112 20t21 105v804q0 85 -21 105t-112 20h-80v156h694v-156h-65q-92 0 -113.5 -20t-21.5 -105v-385l461 433q32 29 32 51q0 26 -80 26h-90v156h688v-156h-47q-82 0 -160 -40.5t-186 -139.5l-200 -182l415 -590q44 -63 82 -82.5t115 -19.5h67v-156h-757 v156h110q51 0 68.5 7t17.5 27q0 26 -32 72l-281 402l-223 -195v-188q0 -85 21.5 -105t113.5 -20h55v-156h-684z" />
<glyph unicode="L" horiz-adv-x="1413" d="M51 0v156h80q91 0 112 20t21 105v804q0 85 -21 105t-112 20h-80v156h731v-156h-96q-92 0 -113.5 -20t-21.5 -105v-929h254q146 0 212.5 26t98.5 97q26 52 35.5 119t11.5 192h156v-590h-1268z" />
<glyph unicode="M" horiz-adv-x="1982" d="M51 0v156h74q91 0 112 20t21 105v804q0 85 -21 105t-112 20h-74v156h635l303 -887l338 887h610v-156h-77q-92 0 -114 -20t-22 -105v-804q0 -85 22 -105t114 -20h77v-156h-702v156h92q92 0 113.5 20t21.5 105v884l-440 -1165h-135l-414 1186v-905q0 -85 21.5 -105 t113.5 -20h80v-156h-637z" />
<glyph unicode="N" horiz-adv-x="1667" d="M20 0v156h95q92 0 113.5 20t21.5 105v804q0 85 -21.5 105t-113.5 20h-86v156h581l604 -991v710q0 85 -21.5 105t-113.5 20h-94v156h645v-156h-65q-92 0 -113.5 -20t-21.5 -105v-1085h-289l-676 1112v-831q0 -85 21.5 -105t113.5 -20h92v-156h-672z" />
<glyph unicode="O" horiz-adv-x="1646" d="M74 694q0 156 57.5 292.5t163.5 230.5q209 188 530 188q222 0 392.5 -89.5t264 -253.5t93.5 -378q0 -160 -54.5 -295t-152 -229t-237 -146.5t-304.5 -52.5q-328 0 -532 189q-221 199 -221 544zM393 692q0 -140 25 -236.5t82 -172.5q117 -160 325 -160q207 0 324 160 q106 143 106 399q0 263 -106 401q-120 160 -324 160q-202 0 -317 -146.5t-115 -404.5z" />
<glyph unicode="P" horiz-adv-x="1392" d="M51 0v156h80q91 0 112 20t21 105v804q0 85 -21 105t-112 20h-80v156h717q277 0 414 -92q69 -47 106 -122t37 -167q0 -98 -41 -177t-113 -122q-68 -39 -163 -54.5t-267 -15.5h-190v-335q0 -85 21.5 -105t113.5 -20h96v-156h-731zM551 772h135q113 0 173.5 12t98.5 43 q68 52 68 166q0 74 -33 125.5t-96 71.5q-59 20 -227 20h-119v-438z" />
<glyph unicode="Q" horiz-adv-x="1697" d="M72 682q0 215 93 379t264 254t394 90q222 0 393 -90t265 -253.5t94 -375.5q0 -321 -219 -524q37 -45 66 -63.5t63 -18.5q41 0 63 51q9 27 19 135h131q-2 -137 -20.5 -209t-65.5 -123q-72 -75 -197 -75q-74 0 -129.5 30.5t-152.5 124.5q-101 -32 -165 -42.5t-147 -10.5 q-336 0 -542.5 199t-206.5 522zM389 684q0 -178 51 -297q17 -43 38.5 -71.5t64.5 -65.5v53q0 120 66.5 186t189.5 66q104 0 191 -45t212 -164q39 86 53.5 154t14.5 168q0 272 -116 423.5t-325 151.5q-205 0 -322.5 -149t-117.5 -410zM655 250q0 -60 44.5 -98.5t113.5 -38.5 q116 0 201 63q-62 108 -115.5 152.5t-122.5 44.5q-54 0 -87.5 -34.5t-33.5 -88.5z" />
<glyph unicode="R" horiz-adv-x="1576" d="M51 0v156h80q91 0 112 20t21 105v802q0 86 -21 106.5t-112 20.5h-80v156h815q263 0 385 -84q57 -38 88 -103t31 -143q0 -171 -133 -262q-46 -32 -100.5 -49t-157.5 -35q153 -25 212 -88t62 -205l7 -121q4 -67 17.5 -90.5t45.5 -23.5q14 0 22.5 2.5t15.5 12t11 24 t6.5 41.5t3.5 60.5t2 86.5h132q0 -165 -15 -229q-46 -199 -264 -199q-123 0 -192.5 65t-73.5 185l-4 160q-6 163 -70.5 217.5t-249.5 54.5h-96v-362q0 -85 21.5 -105t113.5 -20h96v-156h-731zM551 799h240q147 0 213.5 49t66.5 156q0 129 -86 174q-33 18 -76.5 25t-122.5 7 h-235v-411z" />
<glyph unicode="S" horiz-adv-x="1312" d="M82 983q0 191 134.5 307.5t354.5 116.5q117 0 198 -28.5t204 -112.5l71 100h121v-518h-153q-45 201 -154 299q-51 43 -125.5 68.5t-148.5 25.5q-120 0 -189 -47t-69 -129q0 -69 47 -111t153 -67l275 -64q177 -39 295 -125q66 -49 103.5 -130t37.5 -173 q0 -190 -143.5 -312t-366.5 -122q-121 0 -220.5 36.5t-232.5 129.5l-45 -127h-141v563h158q26 -124 58.5 -190.5t94.5 -120.5q66 -57 140 -82t174 -25q129 0 199.5 46.5t70.5 132.5q0 77 -55 124.5t-176 75.5l-222 51q-239 55 -343.5 150.5t-104.5 257.5z" />
<glyph unicode="T" horiz-adv-x="1382" d="M49 801v565h1284v-565h-155q-5 233 -81 325q-74 89 -251 88h-12v-933q0 -85 21.5 -105t113.5 -20h118v-156h-792v156h117q92 0 113.5 20t21.5 105v933h-19q-170 0 -242 -88q-76 -92 -81 -325h-156z" />
<glyph unicode="U" horiz-adv-x="1556" d="M41 1210v156h709v-156h-88q-91 0 -112.5 -20t-21.5 -105v-653q0 -85 14 -129.5t50 -75.5q76 -67 209 -67q140 0 225 73q36 31 51 76.5t15 122.5v653q0 85 -22 105t-114 20h-79v156h632v-156h-61q-92 0 -113.5 -20t-21.5 -105v-653q0 -224 -123 -338q-67 -64 -176 -99.5 t-240 -35.5q-242 0 -389 117q-75 59 -109 143t-34 213v653q0 85 -22 105t-114 20h-65z" />
<glyph unicode="V" horiz-adv-x="1454" d="M-31 1210v156h715v-156h-106q-59 0 -83 -13.5t-24 -47.5q0 -33 25 -100l252 -709l270 725q20 50 20 92q0 31 -26.5 42t-100.5 11h-90v156h649v-156h-40q-77 0 -111 -25t-64 -108l-403 -1077h-283l-383 1081q-26 74 -59.5 101.5t-97.5 27.5h-60z" />
<glyph unicode="W" horiz-adv-x="1992" d="M20 1210v156h584v-156h-65q-84 0 -84 -57q0 -25 8 -49l211 -770l244 704q-22 97 -55.5 134.5t-100.5 37.5h-49v156h598v-156h-76q-51 0 -72.5 -12t-21.5 -41q0 -24 10 -57l229 -746l205 693q19 62 19 102q0 32 -27 46.5t-86 14.5h-68v156h557v-156h-45q-51 0 -83 -32 t-54 -105l-309 -1073h-270l-213 731l-248 -731h-256l-289 1028q-31 110 -62 146t-96 36h-35z" />
<glyph unicode="X" horiz-adv-x="1607" d="M0 0v156h70q61 0 97 19t89 79l389 444l-319 402q-49 63 -92.5 86.5t-108.5 23.5h-70v156h721v-156h-94q-57 0 -57 -39q0 -25 32 -65l179 -215l217 225q32 32 32 60q0 34 -90 34h-77v156h641v-156h-74q-51 0 -89 -27t-128 -124l-301 -328l346 -432q79 -98 118 -120.5 t128 -22.5h59v-156h-782v156h94q54 0 74 8.5t20 30.5q0 31 -25 59l-221 281l-194 -224q-35 -41 -48.5 -65t-13.5 -47q0 -25 20 -34t74 -9h95v-156h-711z" />
<glyph unicode="Y" horiz-adv-x="1495" d="M0 1210v156h723v-156h-100q-49 0 -68.5 -10t-19.5 -35q0 -26 26 -63l230 -322l243 332q27 38 27 59q0 39 -72 39h-121v156h633v-156h-47q-54 0 -87 -18.5t-73 -71.5l-405 -549v-290q0 -85 21.5 -105t113.5 -20h119v-156h-795v156h119q92 0 113.5 20t21.5 105v290 l-338 500q-53 77 -97 108t-99 31h-68z" />
<glyph unicode="Z" horiz-adv-x="1341" d="M82 0v164l815 1046h-231q-160 0 -227 -25t-107 -100q-26 -46 -37 -107.5t-16 -184.5h-156v573h1112v-176l-809 -1034h217q93 0 151.5 5.5t108 25t76.5 47.5t48.5 84.5t32 124t19.5 175.5h156v-618h-1153z" />
<glyph unicode="[" horiz-adv-x="782" d="M182 -352v1718h508v-137h-246v-1444h246v-137h-508z" />
<glyph unicode="\" horiz-adv-x="755" d="M82 1405h151l500 -1593h-149z" />
<glyph unicode="]" horiz-adv-x="782" d="M92 -215h246v1444h-246v137h508v-1718h-508v137z" />
<glyph unicode="^" horiz-adv-x="1024" d="M45 737l330 635h276l330 -635h-225l-244 467l-244 -467h-223z" />
<glyph unicode="_" horiz-adv-x="1024" d="M0 -129h1024v-152h-1024v152z" />
<glyph unicode="`" horiz-adv-x="1024" d="M131 1386q0 46 32 77.5t79 31.5q35 0 68.5 -21t84.5 -75l277 -293h-113l-326 162q-56 28 -79 54.5t-23 63.5z" />
<glyph unicode="a" horiz-adv-x="1159" d="M59 225q0 78 40.5 141.5t113.5 98.5q93 48 291 94q100 25 139 61t39 103q0 80 -54.5 121t-160.5 41q-61 0 -103.5 -13.5t-87.5 -46.5q72 -5 104 -31t32 -81q0 -57 -39.5 -93t-102.5 -36q-72 0 -116.5 44t-44.5 115q0 114 108 183t287 69q100 0 184.5 -19.5t130.5 -53.5 q62 -44 81.5 -101t19.5 -190v-426q0 -72 49 -72q35 0 48 43.5t13 159.5v22h123q-1 -116 -7.5 -168.5t-21.5 -93.5q-58 -131 -225 -131q-90 0 -139 34t-80 118q-75 -86 -147 -120t-181 -34q-131 0 -212 72.5t-81 189.5zM334 250q0 -56 32.5 -86.5t92.5 -30.5q89 0 151 62 q35 35 49.5 78.5t14.5 111.5v117q-63 -33 -99 -47l-104 -41q-66 -26 -101.5 -68.5t-35.5 -95.5z" />
<glyph unicode="b" horiz-adv-x="1210" d="M0 1229v137h406v-557q69 104 140 145t183 41q196 0 307 -136t111 -378q0 -119 -25.5 -206.5t-81.5 -161.5q-60 -77 -134.5 -112.5t-178.5 -35.5q-108 0 -187 35.5t-165 122.5l-82 -133h-133v1118q0 75 -22.5 98t-94.5 23h-43zM406 477q0 -165 62 -253.5t177 -88.5 q109 0 166 86t57 250q0 348 -223 348q-115 0 -177 -88.5t-62 -253.5z" />
<glyph unicode="c" horiz-adv-x="1046" d="M61 475q0 232 147.5 376t383.5 144q174 0 287.5 -83.5t113.5 -211.5q0 -78 -44 -126t-115 -48q-65 0 -106.5 38t-41.5 98q0 106 117 126q-59 43 -98.5 58.5t-92.5 15.5q-132 0 -203 -98t-71 -281q0 -333 252 -333q107 0 160.5 56t76.5 193h158q-10 -115 -31 -179.5 t-65 -121.5q-109 -133 -334 -133q-224 0 -359 139t-135 371z" />
<glyph unicode="d" d="M72 483q0 244 109.5 378t307.5 134q119 0 190 -42.5t134 -151.5v307q0 75 -22.5 98t-94.5 23h-86v137h449v-1108q0 -74 22.5 -97.5t94.5 -23.5h57v-137h-420v168q-63 -110 -133.5 -153.5t-187.5 -43.5q-199 0 -309.5 134.5t-110.5 377.5zM350 483q0 -348 223 -348 q115 0 177.5 89t62.5 253t-62.5 253t-177.5 89q-109 0 -166 -86t-57 -250z" />
<glyph unicode="e" horiz-adv-x="1087" d="M61 477q0 232 139.5 375t366.5 143q230 0 346 -143q57 -69 81 -153.5t30 -237.5h-684q6 -95 19.5 -147t43.5 -95q66 -92 193 -92q110 0 170 51q28 25 45.5 60t36.5 104h170q-20 -110 -51.5 -171t-94.5 -110q-122 -98 -313 -98q-224 0 -361 141.5t-137 372.5zM348 604h408 q-17 141 -59 198.5t-130 57.5q-91 0 -142.5 -60.5t-76.5 -195.5z" />
<glyph unicode="f" horiz-adv-x="761" d="M51 0v137h60q76 0 99 23t23 98v557h-182v141h182v33q0 412 355 412q131 0 212 -59t81 -154q0 -69 -37.5 -110.5t-100.5 -41.5q-57 0 -93 33t-36 86q0 86 86 113q-35 28 -86 28q-75 0 -105 -44t-30 -156v-140h209v-141h-209v-557q0 -74 22.5 -97.5t94.5 -23.5h92v-137 h-637z" />
<glyph unicode="g" horiz-adv-x="1351" d="M72 -203q0 66 41 104t147 72q-86 28 -125 71t-39 112t41.5 115.5t138.5 86.5q-78 73 -108.5 134t-30.5 141q0 164 124.5 263t330.5 99q102 0 176.5 -20.5t159.5 -71.5q54 52 97 72t103 20q102 0 162 -54.5t60 -147.5q0 -63 -37.5 -104.5t-95.5 -41.5q-56 0 -94 35.5 t-38 87.5q0 44 23 71t74 42q-38 26 -68 26q-37 0 -67.5 -19t-67.5 -65q32 -63 43.5 -103t11.5 -91q0 -168 -119.5 -264.5t-328.5 -96.5q-89 0 -221 35q-30 -22 -41 -36.5t-11 -32.5q0 -37 31 -53.5t100 -16.5h279q125 0 194 -11t123 -40q59 -32 94 -93t35 -131 q0 -78 -41.5 -146t-109.5 -103q-160 -80 -440 -80q-238 0 -372 62.5t-134 172.5zM248 -182q0 -140 315 -140q338 0 338 150q0 69 -66.5 95t-244.5 26q-236 0 -291 -41q-51 -36 -51 -90zM406 645q0 -129 42 -187.5t136 -58.5q95 0 138.5 56t43.5 178q0 126 -43.5 185 t-138.5 59q-91 0 -134.5 -57t-43.5 -175z" />
<glyph unicode="h" horiz-adv-x="1320" d="M51 0v137h53q72 0 94.5 23t22.5 98v850q0 75 -22.5 98t-94.5 23h-53v137h416v-573q95 110 171 154t173 44q66 0 128.5 -23t100.5 -61t54 -99.5t16 -170.5v-379q0 -74 22.5 -97.5t94.5 -23.5h57v-137h-575v137h41q70 0 92 23.5t22 97.5v379q0 64 -5.5 92t-22.5 51 q-41 54 -121 54q-54 0 -104 -27t-85 -74q-34 -42 -46.5 -93.5t-12.5 -141.5v-240q0 -74 22.5 -97.5t94.5 -23.5h41v-137h-574z" />
<glyph unicode="i" horiz-adv-x="712" d="M51 0v137h74q72 0 94.5 23.5t22.5 97.5v444q0 74 -22.5 97.5t-94.5 23.5h-74v138h438v-703q0 -74 22.5 -97.5t94.5 -23.5h62v-137h-617zM197 1235q0 60 44.5 103.5t106.5 43.5q63 0 107.5 -44t44.5 -107t-44 -107.5t-106 -44.5q-65 0 -109 45t-44 111z" />
<glyph unicode="j" horiz-adv-x="651" d="M-133 -231q0 63 40 103t103 40q57 0 90 -31.5t33 -85.5q0 -49 -24.5 -74t-83.5 -36q62 -21 88 -21q29 0 56 15t40 40q13 26 17.5 58t4.5 104v821q0 74 -22.5 97.5t-95.5 23.5h-80v138h446v-1014q0 -103 -13 -164t-44 -102q-41 -56 -114.5 -87.5t-162.5 -31.5 q-120 0 -199 59t-79 148zM184 1235q0 60 45 103.5t107 43.5q63 0 107 -44t44 -107t-43.5 -107.5t-105.5 -44.5q-65 0 -109.5 45t-44.5 111z" />
<glyph unicode="k" horiz-adv-x="1302" d="M51 0v137h53q72 0 94.5 23t22.5 98v850q0 75 -22.5 98t-94.5 23h-53v137h416v-872l309 251q35 28 35 50q0 17 -14.5 22.5t-57.5 5.5h-110v138h608v-138h-41q-52 0 -85.5 -14.5t-92.5 -60.5l-189 -156l242 -340q79 -115 189 -115h47v-137h-590v137h69q25 0 41.5 9t16.5 22 q0 21 -25 53l-162 238l-190 -154v-47q0 -74 22.5 -97.5t92.5 -23.5h24v-137h-555z" />
<glyph unicode="l" horiz-adv-x="692" d="M41 0v137h61q73 0 96 23.5t23 97.5v850q0 74 -23 97.5t-96 23.5h-61v137h428v-1108q0 -74 22.5 -97.5t94.5 -23.5h63v-137h-608z" />
<glyph unicode="m" horiz-adv-x="1892" d="M51 0v137h66q72 0 94 23.5t22 97.5v444q0 74 -22 97.5t-94 23.5h-66v138h424v-164q95 112 165 153t167 41q102 0 161 -44t103 -152q105 115 175 155.5t163 40.5q136 0 213 -80q40 -40 53 -94t13 -180v-379q0 -74 22 -97.5t94 -23.5h58v-137h-555v137h22q72 0 94.5 23.5 t22.5 97.5v379q0 68 -5 96.5t-20 50.5q-15 23 -45 36.5t-65 13.5q-97 0 -163.5 -77.5t-66.5 -189.5v-309q0 -74 22.5 -97.5t94.5 -23.5h23v-137h-521v137h23q72 0 94.5 23.5t22.5 97.5v379q0 68 -5 96.5t-20 50.5q-15 23 -45 36.5t-65 13.5q-97 0 -163.5 -77.5t-66.5 -189.5 v-309q0 -74 23 -97.5t96 -23.5h22v-137h-565z" />
<glyph unicode="n" horiz-adv-x="1331" d="M51 0v137h66q72 0 94 23.5t22 97.5v444q0 74 -22 97.5t-94 23.5h-66v138h428v-170q96 113 171.5 156.5t174.5 43.5q66 0 129 -23t101 -61t53.5 -99.5t15.5 -170.5v-379q0 -74 22.5 -97.5t94.5 -23.5h57v-137h-577v137h41q72 0 94.5 23.5t22.5 97.5v379q0 63 -6 91.5 t-23 51.5q-44 54 -123 54q-54 0 -103.5 -26.5t-84.5 -74.5q-34 -45 -47 -93t-13 -134v-248q0 -74 22.5 -97.5t94.5 -23.5h41v-137h-586z" />
<glyph unicode="o" horiz-adv-x="1200" d="M57 487q0 227 150 367.5t393 140.5q246 0 394.5 -141.5t148.5 -374.5q0 -232 -148 -373t-391 -141q-252 0 -399.5 141t-147.5 381zM336 485q0 -190 65 -283t199 -93q264 0 264 372q0 371 -264 371t-264 -367z" />
<glyph unicode="p" d="M20 -301h62q72 0 94.5 23.5t22.5 97.5v882q0 74 -22.5 97.5t-94.5 23.5h-51v138h413v-168q63 110 134 153t188 43q199 0 309.5 -134.5t110.5 -377.5q0 -244 -110 -378t-310 -134q-117 0 -188 43t-134 152v-340q0 -74 22.5 -97.5t94.5 -23.5h90v-137h-631v137zM444 483 q0 -164 62.5 -253t177.5 -89q109 0 166 86t57 250q0 348 -223 348q-115 0 -177.5 -89t-62.5 -253z" />
<glyph unicode="q" horiz-adv-x="1282" d="M92 477q0 243 110.5 377.5t309.5 134.5q117 0 188 -43t134 -153v168h413v-138h-51q-72 0 -94.5 -23.5t-22.5 -97.5v-882q0 -74 22.5 -97.5t94.5 -23.5h64v-137h-633v137h90q72 0 94.5 23.5t22.5 97.5v340q-63 -109 -134 -152t-188 -43q-200 0 -310 134t-110 378zM371 489 q0 -348 223 -348q115 0 177.5 89t62.5 253t-62.5 253t-177.5 89q-109 0 -166 -86t-57 -250z" />
<glyph unicode="r" horiz-adv-x="1007" d="M51 0v137h66q72 0 94 23.5t22 97.5v444q0 74 -22 97.5t-94 23.5h-66v138h428v-146q60 94 118.5 133t141.5 39q104 0 173 -63t69 -158q0 -75 -46 -123.5t-118 -48.5q-63 0 -101 34t-38 91q0 53 28.5 85t94.5 54q-65 21 -90 21q-41 0 -87.5 -30t-78.5 -77q-66 -98 -66 -256 v-258q0 -74 22.5 -97.5t94.5 -23.5h102v-137h-647z" />
<glyph unicode="s" horiz-adv-x="1007" d="M61 -12v393h150q26 -94 60.5 -144.5t95.5 -84.5q73 -39 165 -39q79 0 126 33t47 90q0 46 -39.5 75t-130.5 51l-150 35q-158 38 -235.5 111.5t-77.5 185.5q0 135 102.5 218t271.5 83q82 0 147.5 -21.5t143.5 -74.5l43 74h117v-355h-137q-23 67 -46 103t-59 63 q-35 29 -90 47.5t-106 18.5q-69 0 -110.5 -30t-41.5 -81q0 -77 115 -104l182 -43q181 -43 262.5 -118t81.5 -198q0 -145 -104 -228t-285 -83q-95 0 -158 21.5t-168 87.5l-36 -86h-136z" />
<glyph unicode="t" horiz-adv-x="823" d="M31 819v133q146 32 202.5 110.5t75.5 274.5h129v-376h264v-142h-268v-547q0 -67 16 -92.5t56 -25.5q71 0 82 73q7 33 8.5 65t3.5 161h132v-72q0 -112 -9 -173.5t-35 -113.5q-63 -129 -244 -129q-144 0 -208 101q-27 42 -37.5 93t-10.5 142v518h-157z" />
<glyph unicode="u" horiz-adv-x="1320" d="M51 823v138h410v-637q0 -64 5.5 -92.5t22.5 -51.5q43 -53 123 -53q111 0 189 100q32 43 44.5 92.5t12.5 133.5v249q0 74 -22.5 97.5t-94.5 23.5h-92v138h455v-703q0 -74 23 -97.5t96 -23.5h53v-137h-418v170q-95 -114 -169.5 -157.5t-174.5 -43.5q-66 0 -128.5 23 t-100.5 61t-54 100t-16 171v378q0 74 -22.5 97.5t-94.5 23.5h-47z" />
<glyph unicode="v" horiz-adv-x="1128" d="M10 823v138h529v-138h-33q-43 0 -61.5 -12t-18.5 -41q0 -34 18 -84l152 -444l164 463q12 34 12 65q0 53 -90 53h-49v138h473v-138h-51q-78 0 -123 -123l-246 -700h-260l-248 721q-19 54 -44.5 78t-65.5 24h-58z" />
<glyph unicode="w" horiz-adv-x="1677" d="M20 823v138h504v-138h-49q-37 0 -51 -10.5t-14 -38.5q0 -27 16 -82l139 -469l172 477q15 40 15 64q0 34 -20 46.5t-73 12.5h-38v138h491v-138h-59q-34 0 -49 -11t-15 -36q0 -33 12 -63l162 -502l150 461q22 71 22 100q0 51 -65 51h-51v138h421v-138h-43q-40 0 -64.5 -29 t-49.5 -104l-230 -690h-239l-174 537l-185 -537h-243l-228 705q-23 71 -47.5 94.5t-73.5 23.5h-43z" />
<glyph unicode="x" horiz-adv-x="1310" d="M10 0v137h51q80 0 172 82l283 254l-240 254q-51 53 -92 74.5t-92 21.5h-41v138h586v-138h-43q-55 0 -55 -28q0 -17 28 -47l117 -127l123 114q28 25 36.5 36.5t8.5 23.5q0 28 -68 28h-43v138h514v-138h-41q-36 0 -94 -24q-33 -16 -102 -78l-223 -205l260 -270 q106 -109 190 -109h43v-137h-604v137h43q78 0 78 29q0 16 -31 47l-145 152l-168 -152q-37 -34 -37 -47q0 -12 16.5 -20.5t40.5 -8.5h78v-137h-549z" />
<glyph unicode="y" horiz-adv-x="1189" d="M-10 -182q0 81 47 131.5t121 50.5q61 0 101 -38t40 -97q0 -121 -149 -121q29 -29 49.5 -39t52.5 -10q83 0 139.5 64t128.5 241l-313 700q-29 66 -64 94.5t-86 28.5h-61v138h588v-138h-70q-72 0 -72 -42q0 -26 13 -52l188 -442l168 424q14 40 14 61q0 28 -21 39.5 t-69 11.5h-55v138h491v-138h-45q-91 0 -149 -145l-229 -563q-68 -169 -120.5 -272t-108 -168t-112 -89t-133.5 -24q-123 0 -203.5 73t-80.5 183z" />
<glyph unicode="z" horiz-adv-x="1026" d="M41 0v150l618 673h-213q-87 0 -129.5 -20.5t-64.5 -71.5q-12 -28 -17 -66t-10 -128h-143v424h860v-154l-610 -670h176q123 0 174.5 18t77.5 70q16 33 24 80t15 154h143v-459h-901z" />
<glyph unicode="{" horiz-adv-x="782" d="M86 434v123q63 14 89 53.5t26 122.5v350q0 166 75.5 228.5t274.5 62.5q59 0 149 -4v-129q-23 2 -51 2q-74 0 -101 -4.5t-48 -21.5q-25 -19 -30 -41t-7 -107v-321q0 -102 -25.5 -154t-97.5 -98q69 -44 96 -99t27 -153v-320q2 -90 7.5 -113t31.5 -40q36 -23 147 -23 q28 0 51 2v-129q-68 -4 -155 -4q-195 0 -269.5 65t-74.5 234v334q0 88 -26 129t-89 55z" />
<glyph unicode="|" horiz-adv-x="1024" d="M387 -342v1708h250v-1708h-250z" />
<glyph unicode="}" horiz-adv-x="782" d="M82 -250q23 -2 51 -2q74 0 102 5t50 22q25 19 30 40t7 105v324q0 103 25 154.5t97 97.5q-69 43 -95.5 98t-26.5 154v319q-2 90 -7.5 112.5t-31.5 41.5q-34 22 -150 22q-28 0 -51 -2v129q132 4 158 4q195 0 269.5 -65t74.5 -234v-334q0 -88 25 -129t87 -55v-125 q-61 -13 -86.5 -52.5t-25.5 -121.5v-350q0 -166 -76 -228.5t-277 -62.5q-55 0 -149 4v129z" />
<glyph unicode="~" horiz-adv-x="1366" d="M190 1255q111 261 293 261q75 0 228 -72q90 -40 119.5 -50t60.5 -10q46 0 83.5 32t78.5 106l125 -103q-63 -138 -132 -200t-161 -62q-38 0 -76.5 13t-142.5 59q-91 39 -125 50t-66 11q-46 0 -81.5 -30t-78.5 -105z" />
<glyph unicode="&#xa1;" horiz-adv-x="630" d="M162 -291q0 62 28 273q48 370 64 585h125q18 -230 39 -415l35 -314q10 -82 10 -129q0 -160 -150 -160q-78 0 -114.5 38.5t-36.5 121.5zM166 840q0 63 43.5 107t105.5 44q65 0 109.5 -44.5t44.5 -110.5q0 -60 -45 -104t-107 -44q-63 0 -107 44.5t-44 107.5z" />
<glyph unicode="&#xa2;" d="M152 510q0 235 147.5 378.5t388.5 143.5q58 0 102 -9t115 -36l92 178h121l-123 -237q52 -59 70 -98.5t18 -90.5q0 -80 -45 -129t-118 -49q-28 0 -48 6.5t-49 26.5l-209 -404q47 -6 80 -6q51 0 96.5 23t71.5 61q22 31 34 66t22 100h159q-12 -112 -32 -174t-60 -117 q-54 -68 -140.5 -105.5t-189.5 -37.5q-48 0 -133 10l-108 -213h-119l125 246q-88 52 -131 92.5t-72 97.5q-65 118 -65 277zM428 520q0 -107 19 -165t73 -117l275 530q27 30 41.5 38t56.5 17q-59 43 -97.5 58.5t-90.5 15.5q-133 0 -205 -97.5t-72 -279.5z" />
<glyph unicode="&#xa3;" d="M92 135q130 98 172 181t37 237h-201v121h164q-47 94 -64.5 148t-17.5 108q0 151 136.5 246.5t353.5 95.5q209 0 347 -87t138 -218q0 -77 -48.5 -126.5t-123.5 -49.5q-66 0 -110 39t-44 98q0 44 24.5 73t82.5 54q-64 54 -109 72t-112 18q-102 0 -168 -54.5t-66 -138.5 q0 -37 10 -73t44 -119q30 -81 32 -86h258v-121h-241q-5 -90 -50 -164t-126 -125l8 -14q116 53 178 53q87 0 205 -51q78 -35 102.5 -43t48.5 -8q58 0 84.5 44.5t34.5 153.5h111q-2 -107 -6 -149.5t-17 -81.5q-34 -98 -102.5 -150.5t-165.5 -52.5q-49 0 -96 14t-142 56 q-136 61 -225 61q-70 0 -126.5 -27t-133.5 -98z" />
<glyph unicode="&#xa4;" horiz-adv-x="1366" d="M61 1253l125 125l207 -207q75 51 143 73t148 22q151 0 285 -92l205 204l124 -125l-204 -204q53 -77 75.5 -143.5t22.5 -143.5t-21.5 -143t-72.5 -140l205 -207l-123 -125l-205 205q-140 -96 -291 -96q-77 0 -144.5 22t-146.5 74l-205 -205l-125 125l205 205 q-94 134 -94 287q0 147 96 283zM383 760q0 -123 88 -211t211 -88q124 0 212.5 88t88.5 211q0 124 -87.5 212.5t-209.5 88.5q-127 0 -215 -87.5t-88 -213.5z" />
<glyph unicode="&#xa5;" horiz-adv-x="1480" d="M63 1098v141h656v-141h-90q-45 0 -62.5 -9t-17.5 -32t24 -60l207 -290l221 301q25 36 25 55q0 35 -65 35h-109v141h573v-141h-43q-49 0 -78 -17t-65 -65l-186 -250h190v-119h-276l-84 -112h348v-119h-361v-160q0 -78 19.5 -96.5t101.5 -18.5h109v-141h-719v141h108 q82 0 101.5 18.5t19.5 96.5v160h-360v119h350l-78 112h-284v119h204l-137 205q-47 69 -88 98t-92 29h-62z" />
<glyph unicode="&#xa6;" horiz-adv-x="1024" d="M387 313h250v-655h-250v655zM387 659v707h250v-707h-250z" />
<glyph unicode="&#xa7;" horiz-adv-x="1210" d="M92 502q0 106 61 180t195 129q-96 69 -134 127.5t-38 138.5q0 148 125 239t326 91q169 0 277 -67t108 -171q0 -64 -40 -106.5t-100 -42.5q-57 0 -97 37t-40 88q0 63 68 117q-99 36 -180 36q-112 0 -182 -49t-70 -127q0 -65 40.5 -104t153.5 -80l252 -94 q140 -53 215.5 -136.5t75.5 -187.5q0 -118 -92 -207q-28 -27 -60 -46.5t-100 -53.5q105 -66 145.5 -125.5t40.5 -146.5q0 -167 -132 -273t-339 -106q-179 0 -302.5 78t-123.5 190q0 66 44.5 112t107.5 46q62 0 101.5 -36t39.5 -91q0 -48 -19 -74t-75 -53q70 -33 111.5 -44.5 t93.5 -11.5q118 0 203 54q84 55 84 162q0 70 -44.5 114t-154.5 82l-164 57q-192 68 -268 125q-54 38 -83.5 98.5t-29.5 131.5zM285 561q0 -57 31.5 -93t107.5 -67l289 -116q102 20 150 62.5t48 111.5q0 65 -38 108t-123 74l-261 96q-204 -27 -204 -176z" />
<glyph unicode="&#xa8;" horiz-adv-x="1024" d="M176 1290q0 59 42.5 100.5t103.5 41.5q57 0 98 -42.5t41 -99.5q0 -60 -42 -101.5t-102 -41.5q-59 0 -100 41.5t-41 101.5zM563 1290q0 59 42.5 100.5t103.5 41.5q57 0 98 -42.5t41 -99.5q0 -60 -41 -101.5t-100 -41.5q-60 0 -102 41.5t-42 101.5z" />
<glyph unicode="&#xa9;" horiz-adv-x="1619" d="M74 682q0 196 99 360t271 258.5t379 94.5q116 0 226.5 -36.5t200 -103t157 -154t104.5 -196t37 -223.5q0 -193 -98.5 -357t-267.5 -259t-369 -95q-201 0 -371 95.5t-269 259.5t-99 356zM207 682q0 -121 48 -231t129.5 -190t193.5 -127.5t235 -47.5q122 0 233.5 47.5 t192.5 127.5t128.5 190t47.5 231q0 161 -80.5 299t-217.5 218.5t-296 80.5q-169 0 -310.5 -79t-222.5 -216.5t-81 -302.5zM416 684q0 173 114 291.5t283 118.5q63 0 109 -16t112 -60l23 65h94v-325h-100q-10 63 -24.5 98.5t-39.5 63.5q-58 67 -151 67q-105 0 -164.5 -81.5 t-59.5 -227.5q0 -138 59.5 -213.5t166.5 -75.5q85 0 132.5 50.5t69.5 162.5h111q-9 -87 -25.5 -134.5t-52.5 -90.5q-88 -107 -254 -107q-175 0 -289 117t-114 297z" />
<glyph unicode="&#xaa;" horiz-adv-x="743" d="M39 811q0 82 60.5 126t224.5 81q60 12 83 32t23 58q0 88 -127 88q-58 0 -100 -25q37 -6 54 -23.5t17 -49.5q0 -36 -27 -59t-69 -23q-47 0 -77.5 28t-30.5 72q0 71 70.5 114.5t185.5 43.5q138 0 202 -45q40 -28 53 -62.5t13 -115.5v-252q0 -35 22 -35q19 0 26 22t7 86v25 h92q-2 -123 -20 -164q-37 -82 -146 -82q-57 0 -89 19t-52 65q-44 -47 -90 -66.5t-113 -19.5q-86 0 -139 45t-53 117zM225 827q0 -63 72 -63q61 0 95 37.5t34 105.5v58q-14 -6 -31.5 -14.5t-21.5 -10.5q-39 -16 -66 -25q-82 -28 -82 -88z" />
<glyph unicode="&#xab;" horiz-adv-x="987" d="M123 487q0 66 108 222l80 116h148l-58 -137q-24 -56 -41.5 -116t-17.5 -87q0 -26 17 -84.5t42 -115.5l58 -138h-148l-80 117q-108 156 -108 223zM522 487q0 30 29.5 90.5t79.5 131.5l80 116h147l-57 -137q-25 -57 -42.5 -117t-17.5 -86q0 -25 17.5 -84t42.5 -116l57 -138 h-147l-80 117q-109 154 -109 223z" />
<glyph unicode="&#xac;" horiz-adv-x="1024" d="M68 367v219h886v-586h-241v367h-645z" />
<glyph unicode="&#xad;" horiz-adv-x="550" d="M0 377v217h551v-217h-551z" />
<glyph unicode="&#xae;" horiz-adv-x="1619" d="M74 682q0 196 99 360t271 258.5t379 94.5q116 0 226.5 -36.5t200 -103t157 -154t104.5 -196t37 -223.5q0 -193 -98.5 -357t-267.5 -259t-369 -95q-201 0 -371 95.5t-269 259.5t-99 356zM207 682q0 -121 48 -231t129.5 -190t193.5 -127.5t235 -47.5q122 0 233.5 47.5 t192.5 127.5t128.5 190t47.5 231q0 161 -80.5 299t-217.5 218.5t-296 80.5q-169 0 -310.5 -79t-222.5 -216.5t-81 -302.5zM408 293v100h51q49 0 59 9.5t10 54.5v450q0 45 -10 54.5t-59 9.5h-51v100h471q149 0 222 -46.5t73 -143.5q0 -156 -193 -193q68 -17 96 -54t29 -112 l4 -67q3 -37 8.5 -48.5t20.5 -11.5q19 0 23.5 22t4.5 107h88v-28q0 -125 -36.5 -175.5t-128.5 -50.5q-72 0 -113.5 39t-44.5 109l-4 88q-3 90 -37.5 119.5t-136.5 29.5h-47v-198q0 -45 10 -54.5t59 -9.5h62v-100h-430zM707 756h129q82 0 117.5 24.5t35.5 81.5 q0 62 -33.5 85.5t-121.5 23.5h-127v-215z" />
<glyph unicode="&#xaf;" horiz-adv-x="1024" d="M207 1204v168h610v-168h-610z" />
<glyph unicode="&#xb0;" horiz-adv-x="819" d="M102 1094q0 131 91 221t223 90q127 0 214 -90.5t87 -222.5q0 -131 -89 -221.5t-218 -90.5t-218.5 91t-89.5 223zM217 1092q0 -80 57 -137.5t136 -57.5q80 0 135 57t55 140q0 80 -55 137t-131 57q-83 0 -140 -56.5t-57 -139.5z" />
<glyph unicode="&#xb1;" horiz-adv-x="1124" d="M20 754v112h486v490h112v-490h486v-112h-486v-490h-112v490h-486zM23 0v113h1073v-113h-1073z" />
<glyph unicode="&#xb2;" horiz-adv-x="802" d="M61 541q-6 133 59.5 208t250.5 146q75 29 106 63t31 86q0 60 -48.5 98t-125.5 38q-58 0 -95.5 -20.5t-66.5 -67.5q30 6 49 6q36 0 60 -22t24 -56q0 -38 -29 -63t-73 -25q-54 0 -88.5 34t-34.5 85q0 88 87 148.5t212 60.5q145 0 234 -62.5t89 -163.5q0 -77 -49 -129 q-30 -31 -74 -50t-124 -34q-130 -26 -189.5 -57t-95.5 -92q56 30 102 30q47 0 172 -22q79 -14 103 -14q51 0 72 26.5t30 102.5h74q0 -74 -9.5 -115t-35.5 -76q-50 -78 -150 -78q-51 0 -98 14.5t-151 61.5q-32 16 -72 16q-32 0 -48.5 -17t-23.5 -60h-74z" />
<glyph unicode="&#xb3;" horiz-adv-x="802" d="M61 721q0 47 32 77.5t83 30.5q46 0 74.5 -24t28.5 -62q0 -81 -107 -84q42 -30 78.5 -41.5t89.5 -11.5q86 0 137 36t51 97q0 39 -18.5 71.5t-50.5 45.5q-45 18 -144 18v84q103 3 138 17q63 28 63 94q0 52 -43.5 84.5t-114.5 32.5q-40 0 -68.5 -8.5t-72.5 -34.5 q78 -12 78 -72q0 -37 -27.5 -60.5t-70.5 -23.5q-49 0 -79 26t-30 68q0 75 89 127t222 52q136 0 218.5 -49.5t82.5 -131.5q0 -73 -61 -112q-38 -26 -131 -47q60 -12 91.5 -23.5t59.5 -32.5q64 -48 64 -125q0 -97 -96.5 -155t-257.5 -58q-134 0 -221 55t-87 140z" />
<glyph unicode="&#xb4;" horiz-adv-x="1024" d="M303 1106l277 293q51 54 84.5 75t70.5 21q46 0 77.5 -31.5t31.5 -77.5q0 -37 -24 -63.5t-81 -54.5l-323 -162h-113z" />
<glyph unicode="&#xb5;" horiz-adv-x="1179" d="M68 -301q0 38 5 65.5t29 120.5q25 95 25 156v983h180v-678q0 -107 50 -167t139 -60q65 0 119 35.5t108 113.5v756h182v-756q0 -84 28.5 -134t74.5 -50q36 0 65 40.5t33 98.5l55 -2q-22 -119 -84.5 -183.5t-156.5 -64.5q-100 0 -148 70q-29 39 -47 121 q-164 -191 -315 -191q-54 0 -96.5 20t-106.5 75v-25q0 -47 4 -73t20 -79q39 -138 39 -188q0 -67 -28 -109.5t-72 -42.5q-45 0 -73.5 41t-28.5 107z" />
<glyph unicode="&#xb6;" horiz-adv-x="1232" d="M61 1004q0 103 44.5 183.5t125.5 123.5q104 55 297 55h641v-176h-141v-1383h-194v1383h-183v-1383h-194v848q-12 -2 -27 -2q-164 0 -266.5 98t-102.5 253z" />
<glyph unicode="&#xb7;" horiz-adv-x="630" d="M162 485q0 60 45 104t106 44q63 0 107.5 -44.5t44.5 -107.5t-44 -107t-106 -44q-65 0 -109 44.5t-44 110.5z" />
<glyph unicode="&#xb8;" horiz-adv-x="1021" d="M238 -373l47 103q130 -80 231 -80q41 0 64.5 18.5t23.5 52.5q0 39 -23 60.5t-65 21.5q-26 0 -63 -6v203h86v-115q47 6 84 6q70 0 116.5 -48t46.5 -122q0 -86 -59.5 -136t-161.5 -50q-133 0 -327 92z" />
<glyph unicode="&#xb9;" horiz-adv-x="802" d="M182 547v82h58q64 0 82 12t18 55v365h-158v80q106 9 147 28t77 78h104v-553q0 -44 14.5 -54.5t73.5 -10.5h66v-82h-482z" />
<glyph unicode="&#xba;" horiz-adv-x="770" d="M37 967q0 136 96.5 220.5t251.5 84.5q157 0 252.5 -85t95.5 -226q0 -138 -95.5 -224t-250.5 -86q-161 0 -255.5 85.5t-94.5 230.5zM225 965q0 -109 39 -162t121 -53q160 0 160 211q0 213 -160 213t-160 -209z" />
<glyph unicode="&#xbb;" horiz-adv-x="987" d="M123 147l57 138q60 142 60 200q0 61 -60 203l-57 137h147l80 -116q109 -157 109 -222q0 -66 -109 -223l-80 -117h-147zM522 147l58 138q59 143 59 200q0 60 -59 203l-58 137h148l80 -116q108 -154 108 -222q0 -69 -108 -223l-80 -117h-148z" />
<glyph unicode="&#xbc;" horiz-adv-x="1941" d="M182 547v82h58q64 0 82 12t18 55v365h-158v80q106 9 147 28t77 78h104v-553q0 -44 14.5 -54.5t73.5 -10.5h66v-82h-482zM467 -35l856 1309h162l-862 -1309h-156zM1180 193v86l426 421h123v-409h151v-98h-151v-50q0 -35 16.5 -48t60.5 -13h74v-82h-455v82h45q65 0 81 10 t16 51v50h-387zM1319 291h248l4 250z" />
<glyph unicode="&#xbd;" horiz-adv-x="1941" d="M182 547v82h58q64 0 82 12t18 55v365h-158v80q106 9 147 28t77 78h104v-553q0 -44 14.5 -54.5t73.5 -10.5h66v-82h-482zM467 -35l856 1309h162l-862 -1309h-156zM1200 -4q-6 132 59.5 207t249.5 145q75 29 106.5 63.5t31.5 86.5q0 60 -48.5 97.5t-125.5 37.5 q-59 0 -96.5 -20.5t-65.5 -67.5q27 6 47 6q37 0 60.5 -22t23.5 -56q0 -38 -29.5 -63t-73.5 -25q-54 0 -88 34t-34 85q0 88 87 148.5t212 60.5q146 0 235.5 -62.5t89.5 -163.5q0 -88 -57.5 -137.5t-192.5 -75.5q-127 -25 -186 -56t-96 -91q57 29 100 29q45 0 172 -23 q79 -14 102 -14q53 0 74.5 26.5t30.5 102.5h72q0 -73 -9 -113.5t-34 -77.5q-54 -75 -150 -75q-53 0 -102.5 14.5t-147.5 58.5q-39 17 -71 17q-34 0 -49 -16.5t-23 -59.5h-74z" />
<glyph unicode="&#xbe;" horiz-adv-x="1941" d="M61 721q0 47 32 77.5t83 30.5q46 0 74.5 -24t28.5 -62q0 -81 -107 -84q42 -30 78.5 -41.5t89.5 -11.5q86 0 137 36t51 97q0 39 -18.5 71.5t-50.5 45.5q-45 18 -144 18v84q103 3 138 17q63 28 63 94q0 52 -43.5 84.5t-114.5 32.5q-40 0 -68.5 -8.5t-72.5 -34.5 q78 -12 78 -72q0 -37 -27.5 -60.5t-70.5 -23.5q-49 0 -79 26t-30 68q0 75 89 127t222 52q136 0 218.5 -49.5t82.5 -131.5q0 -73 -61 -112q-38 -26 -131 -47q60 -12 91.5 -23.5t59.5 -32.5q64 -48 64 -125q0 -97 -96.5 -155t-257.5 -58q-134 0 -221 55t-87 140zM469 -35 l854 1309h162l-860 -1309h-156zM1180 193v86l428 421h123v-409h149v-98h-149v-50q0 -35 16.5 -48t60.5 -13h72v-82h-453v82h46q65 0 80.5 10t15.5 51v50h-389zM1319 291h250l4 250z" />
<glyph unicode="&#xbf;" horiz-adv-x="1017" d="M41 -78q0 130 100 230q37 37 64 58t153 112q78 60 106 109t32 136h129q2 -35 2 -75q0 -92 -31 -155.5t-127 -166.5q-86 -92 -111.5 -137.5t-25.5 -108.5q0 -100 70.5 -162.5t183.5 -62.5q102 0 174 63q38 32 54 68.5t24 106.5q-36 -29 -60.5 -39.5t-54.5 -10.5 q-55 0 -92 38t-37 95q0 66 49.5 112t120.5 46q89 0 149 -72.5t60 -179.5q0 -165 -130 -271t-331 -106q-206 0 -338.5 105t-132.5 268zM414 840q0 63 43.5 107t105.5 44q65 0 109.5 -44.5t44.5 -110.5q0 -60 -45.5 -104t-108.5 -44q-62 0 -105.5 44.5t-43.5 107.5z" />
<glyph unicode="&#xc0;" horiz-adv-x="1464" d="M-31 0v156h43q79 0 117 27t64 104l380 1079h289l406 -1079q34 -91 59 -111t105 -20h41v-156h-705v156h111q66 0 89 10t23 41q0 18 -18 67l-58 160h-450l-62 -170q-14 -41 -14 -63q0 -28 21.5 -36.5t87.5 -8.5h106v-156h-635zM438 1683q0 38 28 66.5t66 28.5q43 0 105 -54 l283 -247h-111l-283 104q-41 15 -64.5 42.5t-23.5 59.5zM520 594h338l-176 475z" />
<glyph unicode="&#xc1;" horiz-adv-x="1464" d="M-31 0v156h43q79 0 117 27t64 104l380 1079h289l406 -1079q34 -91 59 -111t105 -20h41v-156h-705v156h111q66 0 89 10t23 41q0 18 -18 67l-58 160h-450l-62 -170q-14 -41 -14 -63q0 -28 21.5 -36.5t87.5 -8.5h106v-156h-635zM520 594h338l-176 475zM547 1477l282 247 q59 54 105 54q38 0 66 -28.5t28 -66.5q0 -32 -24 -59.5t-64 -42.5l-283 -104h-110z" />
<glyph unicode="&#xc2;" horiz-adv-x="1464" d="M-31 0v156h43q79 0 117 27t64 104l380 1079h289l406 -1079q34 -91 59 -111t105 -20h41v-156h-705v156h111q66 0 89 10t23 41q0 18 -18 67l-58 160h-450l-62 -170q-14 -41 -14 -63q0 -28 21.5 -36.5t87.5 -8.5h106v-156h-635zM416 1477l196 280h238l199 -280h-97l-221 112 l-219 -112h-96zM520 594h338l-176 475z" />
<glyph unicode="&#xc3;" horiz-adv-x="1464" d="M-31 0v156h43q79 0 117 27t64 104l380 1079h289l406 -1079q34 -91 59 -111t105 -20h41v-156h-705v156h111q66 0 89 10t23 41q0 18 -18 67l-58 160h-450l-62 -170q-14 -41 -14 -63q0 -28 21.5 -36.5t87.5 -8.5h106v-156h-635zM424 1475q29 135 78.5 191t138.5 56 q34 0 76 -10l114 -31q21 -6 43 -6q34 0 54 18t37 64h75q-15 -72 -31 -110.5t-44 -71.5q-60 -66 -140 -66q-18 0 -63 9l-113 30q-46 11 -61 11q-64 0 -88 -84h-76zM520 594h338l-176 475z" />
<glyph unicode="&#xc4;" horiz-adv-x="1464" d="M-31 0v156h43q79 0 117 27t64 104l380 1079h289l406 -1079q34 -91 59 -111t105 -20h41v-156h-705v156h111q66 0 89 10t23 41q0 18 -18 67l-58 160h-450l-62 -170q-14 -41 -14 -63q0 -28 21.5 -36.5t87.5 -8.5h106v-156h-635zM395 1620q0 54 42.5 95.5t97.5 41.5 q57 0 98 -42t41 -99q0 -56 -41 -96.5t-96 -40.5q-60 0 -101 40.5t-41 100.5zM520 594h338l-176 475zM776 1620q0 54 42 95.5t97 41.5q57 0 98.5 -42t41.5 -99q0 -56 -40.5 -96.5t-96.5 -40.5q-60 0 -101 40.5t-41 100.5z" />
<glyph unicode="&#xc5;" horiz-adv-x="1464" d="M-31 0v156h43q79 0 117 27t64 104l380 1079h289l406 -1079q34 -91 59 -111t105 -20h41v-156h-705v156h111q66 0 89 10t23 41q0 18 -18 67l-58 160h-450l-62 -170q-14 -41 -14 -63q0 -28 21.5 -36.5t87.5 -8.5h106v-156h-635zM494 1696q0 88 65 150.5t156 62.5 q92 0 156.5 -63t64.5 -154t-65.5 -158.5t-153.5 -67.5q-92 0 -157.5 67.5t-65.5 162.5zM520 594h338l-176 475zM614 1690q0 -41 30 -71t73 -30q40 0 69 29.5t29 69.5q0 41 -29.5 70.5t-70.5 29.5q-40 0 -70.5 -29.5t-30.5 -68.5z" />
<glyph unicode="&#xc6;" horiz-adv-x="2246" d="M-31 0v156h33q62 0 116.5 35t88.5 96l430 796q31 58 31 80q0 27 -25.5 37t-95.5 10h-96v156h1640v-543h-156q-5 111 -17 173.5t-40 111.5q-32 57 -99 79.5t-204 22.5h-326v-419h76q146 0 182 59q12 24 17.5 52.5t17.5 135.5h156v-682h-156q-5 68 -9.5 108t-15 75t-23 51 t-37 27.5t-53 14.5t-75.5 3h-80v-479h357q64 0 107.5 6.5t79.5 25.5t58 47.5t39 78.5t27 112t18 154h156v-580h-1354v156h97q92 0 113.5 20.5t21.5 106.5v196h-422l-101 -190q-40 -76 -40 -99q0 -34 88 -34h96v-156h-621zM629 635h340v575h-41z" />
<glyph unicode="&#xc7;" horiz-adv-x="1443" d="M72 684q0 200 89.5 365.5t245.5 260.5t345 95q115 0 196 -28.5t203 -112.5l41 122h145v-559h-155q-20 115 -43.5 175.5t-67.5 111.5q-109 125 -278 125q-187 0 -294.5 -150t-107.5 -413q0 -253 103 -385q51 -68 131 -106t172 -38q155 0 252 105q44 49 68 107.5t46 168.5 h174q-25 -284 -169 -423t-418 -144v-82q44 8 86 8q70 0 117.5 -48.5t47.5 -119.5q0 -85 -61 -134.5t-164 -49.5q-70 0 -145.5 21t-181.5 71l47 103q127 -80 231 -80q41 0 64.5 18.5t23.5 52.5q0 35 -24 56.5t-64 21.5q-25 0 -63 -6v174q-264 34 -428 233t-164 484z" />
<glyph unicode="&#xc8;" horiz-adv-x="1536" d="M51 0v156h80q91 0 112 20.5t21 106.5v800q0 86 -21 106.5t-112 20.5h-80v156h1342v-543h-156q-3 109 -15.5 171.5t-41.5 113.5q-31 57 -97.5 79.5t-203.5 22.5h-328v-419h78q147 0 180 59q14 24 19.5 52t17.5 136h155v-682h-155q-5 68 -10 109t-15.5 75t-23 50.5 t-37.5 28t-53.5 14t-75.5 2.5h-80v-479h358q64 0 107 6.5t79 25.5t58 47t39 78t27 112t18 155h156v-580h-1342zM475 1683q0 38 28 66.5t66 28.5q46 0 105 -54l280 -247h-110l-281 104q-41 15 -64.5 42.5t-23.5 59.5z" />
<glyph unicode="&#xc9;" horiz-adv-x="1536" d="M51 0v156h80q91 0 112 20.5t21 106.5v800q0 86 -21 106.5t-112 20.5h-80v156h1342v-543h-156q-3 109 -15.5 171.5t-41.5 113.5q-31 57 -97.5 79.5t-203.5 22.5h-328v-419h78q147 0 180 59q14 24 19.5 52t17.5 136h155v-682h-155q-5 68 -10 109t-15.5 75t-23 50.5 t-37.5 28t-53.5 14t-75.5 2.5h-80v-479h358q64 0 107 6.5t79 25.5t58 47t39 78t27 112t18 155h156v-580h-1342zM584 1477l282 247q34 31 56.5 42.5t48.5 11.5q38 0 66 -28.5t28 -66.5q0 -32 -23.5 -59.5t-64.5 -42.5l-283 -104h-110z" />
<glyph unicode="&#xca;" horiz-adv-x="1536" d="M51 0v156h80q91 0 112 20.5t21 106.5v800q0 86 -21 106.5t-112 20.5h-80v156h1342v-543h-156q-3 109 -15.5 171.5t-41.5 113.5q-31 57 -97.5 79.5t-203.5 22.5h-328v-419h78q147 0 180 59q14 24 19.5 52t17.5 136h155v-682h-155q-5 68 -10 109t-15.5 75t-23 50.5 t-37.5 28t-53.5 14t-75.5 2.5h-80v-479h358q64 0 107 6.5t79 25.5t58 47t39 78t27 112t18 155h156v-580h-1342zM453 1477l196 280h238l196 -280h-94l-221 112l-221 -112h-94z" />
<glyph unicode="&#xcb;" horiz-adv-x="1536" d="M51 0v156h80q91 0 112 20.5t21 106.5v800q0 86 -21 106.5t-112 20.5h-80v156h1342v-543h-156q-3 109 -15.5 171.5t-41.5 113.5q-31 57 -97.5 79.5t-203.5 22.5h-328v-419h78q147 0 180 59q14 24 19.5 52t17.5 136h155v-682h-155q-5 68 -10 109t-15.5 75t-23 50.5 t-37.5 28t-53.5 14t-75.5 2.5h-80v-479h358q64 0 107 6.5t79 25.5t58 47t39 78t27 112t18 155h156v-580h-1342zM438 1620q0 54 42.5 95.5t97.5 41.5q57 0 98 -42t41 -99q0 -56 -40.5 -96.5t-96.5 -40.5q-60 0 -101 40.5t-41 100.5zM819 1620q0 54 42 95.5t97 41.5 q57 0 98.5 -42t41.5 -99q0 -56 -41 -96.5t-96 -40.5q-60 0 -101 40.5t-41 100.5z" />
<glyph unicode="&#xcc;" horiz-adv-x="843" d="M55 0v156h86q92 0 113.5 20t21.5 105v804q0 85 -21.5 105t-113.5 20h-86v156h736v-156h-89q-92 0 -113.5 -20t-21.5 -105v-804q0 -85 21.5 -105t113.5 -20h89v-156h-736zM129 1683q0 38 28 66.5t66 28.5q25 0 47.5 -12t57.5 -42l282 -247h-110l-283 104 q-41 15 -64.5 42.5t-23.5 59.5z" />
<glyph unicode="&#xcd;" horiz-adv-x="843" d="M55 0v156h86q92 0 113.5 20t21.5 105v804q0 85 -21.5 105t-113.5 20h-86v156h736v-156h-89q-92 0 -113.5 -20t-21.5 -105v-804q0 -85 21.5 -105t113.5 -20h89v-156h-736zM240 1477l280 247q59 54 105 54q38 0 66 -28.5t28 -66.5q0 -32 -23.5 -59.5t-64.5 -42.5l-281 -104 h-110z" />
<glyph unicode="&#xce;" horiz-adv-x="843" d="M55 0v156h86q92 0 113.5 20t21.5 105v804q0 85 -21.5 105t-113.5 20h-86v156h736v-156h-89q-92 0 -113.5 -20t-21.5 -105v-804q0 -85 21.5 -105t113.5 -20h89v-156h-736zM106 1477l199 280h236l198 -280h-96l-221 112l-219 -112h-97z" />
<glyph unicode="&#xcf;" horiz-adv-x="843" d="M55 0v156h86q92 0 113.5 20t21.5 105v804q0 85 -21.5 105t-113.5 20h-86v156h736v-156h-89q-92 0 -113.5 -20t-21.5 -105v-804q0 -85 21.5 -105t113.5 -20h89v-156h-736zM100 1620q0 54 42.5 95.5t97.5 41.5q57 0 98 -42t41 -99q0 -56 -40.5 -96.5t-96.5 -40.5 q-60 0 -101 40.5t-41 100.5zM467 1620q0 54 42 95.5t97 41.5q57 0 98 -42t41 -99q0 -56 -40.5 -96.5t-96.5 -40.5q-60 0 -100.5 40.5t-40.5 100.5z" />
<glyph unicode="&#xd0;" horiz-adv-x="1656" d="M0 631v141h268v313q0 85 -21.5 105t-113.5 20h-80v156h776q358 0 541.5 -173t183.5 -511q0 -336 -184 -509t-541 -173h-776v156h80q92 0 113.5 20t21.5 105v350h-268zM555 156h178q160 0 242.5 23.5t136.5 84.5q58 66 90.5 176t32.5 242q0 134 -32.5 244t-90.5 176 q-54 61 -136.5 84.5t-242.5 23.5h-178v-438h344v-141h-344v-475z" />
<glyph unicode="&#xd1;" horiz-adv-x="1667" d="M20 0v156h95q92 0 113.5 20t21.5 105v804q0 85 -21.5 105t-113.5 20h-86v156h581l604 -991v710q0 85 -21.5 105t-113.5 20h-94v156h645v-156h-65q-92 0 -113.5 -20t-21.5 -105v-1085h-289l-676 1112v-831q0 -85 21.5 -105t113.5 -20h92v-156h-672zM524 1475 q31 135 80.5 191t138.5 56q36 0 74 -10l117 -31q21 -6 43 -6q34 0 53.5 18t34.5 64h78q-15 -72 -31 -110.5t-45 -71.5q-60 -66 -139 -66q-19 0 -64 9l-112 30q-46 11 -64 11q-62 0 -86 -84h-78z" />
<glyph unicode="&#xd2;" horiz-adv-x="1646" d="M74 694q0 156 57.5 292.5t163.5 230.5q209 188 530 188q222 0 392.5 -89.5t264 -253.5t93.5 -378q0 -160 -54.5 -295t-152 -229t-237 -146.5t-304.5 -52.5q-328 0 -532 189q-221 199 -221 544zM393 692q0 -140 25 -236.5t82 -172.5q117 -160 325 -160q207 0 324 160 q106 143 106 399q0 263 -106 401q-120 160 -324 160q-202 0 -317 -146.5t-115 -404.5zM530 1683q0 38 28.5 66.5t66.5 28.5q47 0 106 -54l281 -247h-111l-283 104q-41 15 -64.5 42.5t-23.5 59.5z" />
<glyph unicode="&#xd3;" horiz-adv-x="1646" d="M74 694q0 156 57.5 292.5t163.5 230.5q209 188 530 188q222 0 392.5 -89.5t264 -253.5t93.5 -378q0 -160 -54.5 -295t-152 -229t-237 -146.5t-304.5 -52.5q-328 0 -532 189q-221 199 -221 544zM393 692q0 -140 25 -236.5t82 -172.5q117 -160 325 -160q207 0 324 160 q106 143 106 399q0 263 -106 401q-120 160 -324 160q-202 0 -317 -146.5t-115 -404.5zM641 1477l281 247q59 54 104 54q38 0 66 -28.5t28 -66.5q0 -32 -23.5 -59.5t-64.5 -42.5l-280 -104h-111z" />
<glyph unicode="&#xd4;" horiz-adv-x="1646" d="M74 694q0 156 57.5 292.5t163.5 230.5q209 188 530 188q222 0 392.5 -89.5t264 -253.5t93.5 -378q0 -160 -54.5 -295t-152 -229t-237 -146.5t-304.5 -52.5q-328 0 -532 189q-221 199 -221 544zM393 692q0 -140 25 -236.5t82 -172.5q117 -160 325 -160q207 0 324 160 q106 143 106 399q0 263 -106 401q-120 160 -324 160q-202 0 -317 -146.5t-115 -404.5zM510 1477l197 280h235l199 -280h-97l-219 112l-221 -112h-94z" />
<glyph unicode="&#xd5;" horiz-adv-x="1646" d="M74 694q0 156 57.5 292.5t163.5 230.5q209 188 530 188q222 0 392.5 -89.5t264 -253.5t93.5 -378q0 -160 -54.5 -295t-152 -229t-237 -146.5t-304.5 -52.5q-328 0 -532 189q-221 199 -221 544zM393 692q0 -140 25 -236.5t82 -172.5q117 -160 325 -160q207 0 324 160 q106 143 106 399q0 263 -106 401q-120 160 -324 160q-202 0 -317 -146.5t-115 -404.5zM516 1475q29 135 78.5 191t138.5 56q34 0 76 -10l115 -31q24 -6 43 -6q35 0 53.5 17.5t36.5 64.5h78q-18 -75 -33.5 -112.5t-44.5 -69.5q-57 -66 -139 -66q-19 0 -64 9l-113 30 q-46 11 -61 11q-62 0 -86 -84h-78z" />
<glyph unicode="&#xd6;" horiz-adv-x="1646" d="M72 694q0 156 57.5 292.5t163.5 230.5q209 188 530 188q222 0 392.5 -89.5t264 -253.5t93.5 -378q0 -160 -54.5 -295t-152 -229t-237 -146.5t-304.5 -52.5q-328 0 -532 189q-221 199 -221 544zM391 692q0 -140 25 -236.5t82 -172.5q117 -160 325 -160q207 0 324 160 q106 143 106 399q0 263 -106 401q-120 160 -324 160q-202 0 -317 -146.5t-115 -404.5zM485 1620q0 54 42.5 95.5t97.5 41.5q57 0 98 -42t41 -99q0 -56 -41 -96.5t-96 -40.5q-60 0 -101 40.5t-41 100.5zM866 1620q0 54 42.5 95.5t97.5 41.5q57 0 98 -42t41 -99 q0 -56 -40.5 -96.5t-96.5 -40.5q-60 0 -101 40.5t-41 100.5z" />
<glyph unicode="&#xd7;" horiz-adv-x="1161" d="M156 348l293 293l-293 293l131 133l295 -295l292 295l132 -133l-293 -293l293 -293l-132 -133l-292 295l-295 -295z" />
<glyph unicode="&#xd8;" horiz-adv-x="1646" d="M72 702q0 150 57.5 284t163.5 231q203 188 532 188q135 0 226 -26.5t223 -104.5l147 160l99 -97l-140 -149q80 -100 113 -160q80 -154 80 -348q0 -324 -207.5 -521.5t-548.5 -197.5q-139 0 -230.5 27.5t-221.5 107.5l-150 -162l-96 99l141 153q-69 94 -108 170 q-80 165 -80 346zM391 705q0 -81 10 -148t39 -174l682 729q-88 77 -150.5 104t-154.5 27q-195 0 -310.5 -146t-115.5 -392zM518 260q74 -75 142 -106t163 -31q202 0 316 147t114 408q0 91 -10.5 153.5t-42.5 163.5z" />
<glyph unicode="&#xd9;" horiz-adv-x="1556" d="M41 1210v156h709v-156h-88q-91 0 -112.5 -20t-21.5 -105v-653q0 -85 14 -129.5t50 -75.5q76 -67 209 -67q140 0 225 73q36 31 51 76.5t15 122.5v653q0 85 -22 105t-114 20h-79v156h632v-156h-61q-92 0 -113.5 -20t-21.5 -105v-653q0 -224 -123 -338q-67 -64 -176 -99.5 t-240 -35.5q-242 0 -389 117q-75 59 -109 143t-34 213v653q0 85 -22 105t-114 20h-65zM483 1683q0 38 28.5 66.5t66.5 28.5q26 0 48.5 -12t57.5 -42l281 -247h-111l-281 104q-42 15 -66 42t-24 60z" />
<glyph unicode="&#xda;" horiz-adv-x="1556" d="M41 1210v156h709v-156h-88q-91 0 -112.5 -20t-21.5 -105v-653q0 -85 14 -129.5t50 -75.5q76 -67 209 -67q140 0 225 73q36 31 51 76.5t15 122.5v653q0 85 -22 105t-114 20h-79v156h632v-156h-61q-92 0 -113.5 -20t-21.5 -105v-653q0 -224 -123 -338q-67 -64 -176 -99.5 t-240 -35.5q-242 0 -389 117q-75 59 -109 143t-34 213v653q0 85 -22 105t-114 20h-65zM594 1477l280 247q62 54 107 54q38 0 66 -28.5t28 -66.5q0 -32 -23.5 -59.5t-64.5 -42.5l-282 -104h-111z" />
<glyph unicode="&#xdb;" horiz-adv-x="1556" d="M41 1210v156h709v-156h-88q-91 0 -112.5 -20t-21.5 -105v-653q0 -85 14 -129.5t50 -75.5q76 -67 209 -67q140 0 225 73q36 31 51 76.5t15 122.5v653q0 85 -22 105t-114 20h-79v156h632v-156h-61q-92 0 -113.5 -20t-21.5 -105v-653q0 -224 -123 -338q-67 -64 -176 -99.5 t-240 -35.5q-242 0 -389 117q-75 59 -109 143t-34 213v653q0 85 -22 105t-114 20h-65zM463 1477l196 280h238l197 -280h-97l-219 112l-221 -112h-94z" />
<glyph unicode="&#xdc;" horiz-adv-x="1556" d="M41 1210v156h709v-156h-88q-91 0 -112.5 -20t-21.5 -105v-653q0 -85 14 -129.5t50 -75.5q76 -67 209 -67q140 0 225 73q36 31 51 76.5t15 122.5v653q0 85 -22 105t-114 20h-79v156h632v-156h-61q-92 0 -113.5 -20t-21.5 -105v-653q0 -224 -123 -338q-67 -64 -176 -99.5 t-240 -35.5q-242 0 -389 117q-75 59 -109 143t-34 213v653q0 85 -22 105t-114 20h-65zM446 1620q0 54 42.5 95.5t97.5 41.5q57 0 98 -42t41 -99q0 -56 -40.5 -96.5t-96.5 -40.5q-60 0 -101 40.5t-41 100.5zM827 1620q0 54 42.5 95.5t97.5 41.5q57 0 98 -42t41 -99 q0 -56 -41 -96.5t-96 -40.5q-60 0 -101 40.5t-41 100.5z" />
<glyph unicode="&#xdd;" horiz-adv-x="1495" d="M0 1210v156h723v-156h-100q-49 0 -68.5 -10t-19.5 -35q0 -26 26 -63l230 -322l243 332q27 38 27 59q0 39 -72 39h-121v156h633v-156h-47q-54 0 -87 -18.5t-73 -71.5l-405 -549v-290q0 -85 21.5 -105t113.5 -20h119v-156h-795v156h119q92 0 113.5 20t21.5 105v290 l-338 500q-53 77 -97 108t-99 31h-68zM563 1477l281 247q35 30 57.5 42t48.5 12q38 0 66 -28.5t28 -66.5q0 -32 -23.5 -59.5t-64.5 -42.5l-282 -104h-111z" />
<glyph unicode="&#xde;" horiz-adv-x="1392" d="M51 0v156h80q91 0 112 20t21 105v804q0 85 -21 105t-112 20h-80v156h731v-156h-96q-92 0 -113.5 -20t-21.5 -105v-14h217q277 0 414 -92q69 -47 106 -122t37 -167q0 -98 -41 -177t-113 -122q-68 -38 -162.5 -53.5t-267.5 -15.5h-190v-41q0 -85 21.5 -105t113.5 -20h96 v-156h-731zM551 477h135q113 0 173.5 12t98.5 43q68 52 68 166q0 74 -33 125.5t-96 71.5q-59 20 -227 20h-119v-438z" />
<glyph unicode="&#xdf;" horiz-adv-x="1282" d="M41 0v137h53q72 0 94.5 23.5t22.5 97.5v705q0 121 29.5 200.5t95.5 136.5q115 101 319 101q201 0 325 -83t124 -218q0 -91 -57 -148.5t-195 -107.5q81 -23 125 -45.5t84 -61.5q110 -110 110 -311q0 -213 -106 -346q-90 -115 -250 -115q-103 0 -165 47t-79 138 q-5 27 -6.5 35.5t-3 31.5t-2 50t-0.5 81h150q3 -136 19.5 -179.5t66.5 -43.5q54 0 76 61.5t22 214.5q0 113 -12 177.5t-49.5 106t-96.5 55t-162 14.5v145q85 3 127 11.5t70 27.5q31 20 49.5 60.5t18.5 86.5q0 80 -48 126t-131 46q-54 0 -98 -20.5t-67 -56.5 q-37 -61 -37 -189v-991h-416z" />
<glyph unicode="&#xe0;" horiz-adv-x="1159" d="M59 225q0 78 40.5 141.5t113.5 98.5q93 48 291 94q100 25 139 61t39 103q0 80 -54.5 121t-160.5 41q-61 0 -103.5 -13.5t-87.5 -46.5q72 -5 104 -31t32 -81q0 -57 -39.5 -93t-102.5 -36q-72 0 -116.5 44t-44.5 115q0 114 108 183t287 69q100 0 184.5 -19.5t130.5 -53.5 q62 -44 81.5 -101t19.5 -190v-426q0 -72 49 -72q35 0 48 43.5t13 159.5v22h123q-1 -116 -7.5 -168.5t-21.5 -93.5q-58 -131 -225 -131q-90 0 -139 34t-80 118q-75 -86 -147 -120t-181 -34q-131 0 -212 72.5t-81 189.5zM201 1386q0 46 31 77.5t77 31.5q36 0 69.5 -21 t84.5 -75l276 -293h-112l-324 162q-55 26 -78.5 53.5t-23.5 64.5zM334 250q0 -56 32.5 -86.5t92.5 -30.5q89 0 151 62q35 35 49.5 78.5t14.5 111.5v117q-63 -33 -99 -47l-104 -41q-66 -26 -101.5 -68.5t-35.5 -95.5z" />
<glyph unicode="&#xe1;" horiz-adv-x="1159" d="M59 225q0 78 40.5 141.5t113.5 98.5q93 48 291 94q100 25 139 61t39 103q0 80 -54.5 121t-160.5 41q-61 0 -103.5 -13.5t-87.5 -46.5q72 -5 104 -31t32 -81q0 -57 -39.5 -93t-102.5 -36q-72 0 -116.5 44t-44.5 115q0 114 108 183t287 69q100 0 184.5 -19.5t130.5 -53.5 q62 -44 81.5 -101t19.5 -190v-426q0 -72 49 -72q35 0 48 43.5t13 159.5v22h123q-1 -116 -7.5 -168.5t-21.5 -93.5q-58 -131 -225 -131q-90 0 -139 34t-80 118q-75 -86 -147 -120t-181 -34q-131 0 -212 72.5t-81 189.5zM334 250q0 -56 32.5 -86.5t92.5 -30.5q89 0 151 62 q35 35 49.5 78.5t14.5 111.5v117q-63 -33 -99 -47l-104 -41q-66 -26 -101.5 -68.5t-35.5 -95.5zM373 1106l276 293q51 54 84.5 75t69.5 21q46 0 77 -31.5t31 -77.5q0 -37 -23 -63.5t-79 -54.5l-324 -162h-112z" />
<glyph unicode="&#xe2;" horiz-adv-x="1159" d="M59 225q0 78 40.5 141.5t113.5 98.5q93 48 291 94q100 25 139 61t39 103q0 80 -54.5 121t-160.5 41q-61 0 -103.5 -13.5t-87.5 -46.5q72 -5 104 -31t32 -81q0 -57 -39.5 -93t-102.5 -36q-72 0 -116.5 44t-44.5 115q0 114 108 183t287 69q100 0 184.5 -19.5t130.5 -53.5 q62 -44 81.5 -101t19.5 -190v-426q0 -72 49 -72q35 0 48 43.5t13 159.5v22h123q-1 -116 -7.5 -168.5t-21.5 -93.5q-58 -131 -225 -131q-90 0 -139 34t-80 118q-75 -86 -147 -120t-181 -34q-131 0 -212 72.5t-81 189.5zM227 1106l228 369h184l225 -369h-98l-219 170 l-219 -170h-101zM334 250q0 -56 32.5 -86.5t92.5 -30.5q89 0 151 62q35 35 49.5 78.5t14.5 111.5v117q-63 -33 -99 -47l-104 -41q-66 -26 -101.5 -68.5t-35.5 -95.5z" />
<glyph unicode="&#xe3;" horiz-adv-x="1159" d="M59 225q0 78 40.5 141.5t113.5 98.5q93 48 291 94q100 25 139 61t39 103q0 80 -54.5 121t-160.5 41q-61 0 -103.5 -13.5t-87.5 -46.5q72 -5 104 -31t32 -81q0 -57 -39.5 -93t-102.5 -36q-72 0 -116.5 44t-44.5 115q0 114 108 183t287 69q100 0 184.5 -19.5t130.5 -53.5 q62 -44 81.5 -101t19.5 -190v-426q0 -72 49 -72q35 0 48 43.5t13 159.5v22h123q-1 -116 -7.5 -168.5t-21.5 -93.5q-58 -131 -225 -131q-90 0 -139 34t-80 118q-75 -86 -147 -120t-181 -34q-131 0 -212 72.5t-81 189.5zM217 1137q34 145 85.5 204.5t143.5 59.5q32 0 80 -10 l121 -33q21 -6 45 -6q37 0 56 18.5t36 71.5h84q-20 -82 -37 -122.5t-45 -74.5q-56 -65 -147 -65q-39 0 -66 8l-116 33q-42 10 -64 10q-36 0 -58 -22.5t-34 -71.5h-84zM334 250q0 -56 32.5 -86.5t92.5 -30.5q89 0 151 62q35 35 49.5 78.5t14.5 111.5v117q-63 -33 -99 -47 l-104 -41q-66 -26 -101.5 -68.5t-35.5 -95.5z" />
<glyph unicode="&#xe4;" horiz-adv-x="1159" d="M59 225q0 78 40.5 141.5t113.5 98.5q93 48 291 94q100 25 139 61t39 103q0 80 -54.5 121t-160.5 41q-61 0 -103.5 -13.5t-87.5 -46.5q72 -5 104 -31t32 -81q0 -57 -39.5 -93t-102.5 -36q-72 0 -116.5 44t-44.5 115q0 114 108 183t287 69q100 0 184.5 -19.5t130.5 -53.5 q62 -44 81.5 -101t19.5 -190v-426q0 -72 49 -72q35 0 48 43.5t13 159.5v22h123q-1 -116 -7.5 -168.5t-21.5 -93.5q-58 -131 -225 -131q-90 0 -139 34t-80 118q-75 -86 -147 -120t-181 -34q-131 0 -212 72.5t-81 189.5zM195 1290q0 57 43.5 99.5t101.5 42.5q57 0 98 -42.5 t41 -101.5q0 -60 -40 -100.5t-99 -40.5q-61 0 -103 41.5t-42 101.5zM334 250q0 -56 32.5 -86.5t92.5 -30.5q89 0 151 62q35 35 49.5 78.5t14.5 111.5v117q-63 -33 -99 -47l-104 -41q-66 -26 -101.5 -68.5t-35.5 -95.5zM582 1290q0 57 43 99.5t100 42.5q58 0 99.5 -42.5 t41.5 -101.5q0 -60 -40 -100.5t-99 -40.5q-61 0 -103 41.5t-42 101.5z" />
<glyph unicode="&#xe5;" horiz-adv-x="1159" d="M59 225q0 78 40.5 141.5t113.5 98.5q93 48 291 94q100 25 139 61t39 103q0 80 -54.5 121t-160.5 41q-61 0 -103.5 -13.5t-87.5 -46.5q72 -5 104 -31t32 -81q0 -57 -39.5 -93t-102.5 -36q-72 0 -116.5 44t-44.5 115q0 114 108 183t287 69q100 0 184.5 -19.5t130.5 -53.5 q62 -44 81.5 -101t19.5 -190v-426q0 -38 11 -55t36 -17q37 0 50 43t13 160v22h123q-1 -116 -7.5 -168.5t-21.5 -93.5q-58 -131 -225 -131q-90 0 -139 34t-80 118q-75 -86 -147 -120t-181 -34q-131 0 -212 72.5t-81 189.5zM301 1335q0 106 78.5 182t185.5 76 q109 0 186.5 -77.5t77.5 -186.5t-77.5 -186.5t-184.5 -77.5q-114 0 -190 77t-76 193zM334 250q0 -56 32.5 -86.5t92.5 -30.5q89 0 151 62q35 35 49.5 78.5t14.5 111.5v117q-63 -33 -99 -47l-104 -41q-66 -26 -101.5 -68.5t-35.5 -95.5zM432 1331q0 -58 38 -96.5t95 -38.5 q55 0 94 39t39 94t-39 94t-94 39t-94 -38.5t-39 -92.5z" />
<glyph unicode="&#xe6;" horiz-adv-x="1728" d="M57 223q0 151 125 226q90 56 359 114q99 20 140.5 55.5t41.5 100.5q0 82 -59.5 125t-171.5 43q-58 0 -103 -12.5t-117 -49.5q72 -3 104 -29.5t32 -82.5q0 -57 -39.5 -93t-102.5 -36q-72 0 -117 44t-45 115q0 114 111 183t291 69q116 0 199 -26t178 -92q95 70 159.5 94 t155.5 24q103 0 188 -37t142 -106t80.5 -153t29.5 -238h-686q5 -95 16.5 -146t39.5 -92q66 -96 202 -96q105 0 168 51q29 24 47 60t37 104h170q-17 -98 -41 -150.5t-75 -105.5q-63 -64 -138 -92.5t-180 -28.5q-137 0 -225.5 46t-186.5 169q-58 -75 -98 -110.5t-96 -61.5 q-96 -47 -213 -47q-146 0 -234 71.5t-88 190.5zM330 252q0 -60 37.5 -93.5t103.5 -33.5q115 0 182 70q35 35 49.5 78.5t14.5 111.5v119q-70 -33 -99 -45q-47 -13 -116 -43q-95 -35 -133.5 -71.5t-38.5 -92.5zM963 604h405q-15 145 -56.5 200.5t-135.5 55.5q-98 0 -146 -58 t-67 -198z" />
<glyph unicode="&#xe7;" horiz-adv-x="1046" d="M61 475q0 232 147.5 376t383.5 144q174 0 287.5 -83.5t113.5 -211.5q0 -78 -45 -126t-117 -48q-65 0 -106 38t-41 98q0 106 117 126q-60 44 -98 59t-91 15q-132 0 -203 -99t-71 -282q0 -164 64 -249t188 -85q107 0 160.5 57t76.5 195h156q-10 -218 -117 -325t-313 -109 v-80q47 6 84 6q71 0 117.5 -48.5t46.5 -121.5q0 -86 -59.5 -136t-161.5 -50q-131 0 -328 92l47 103q127 -80 231 -80q41 0 64.5 18.5t23.5 52.5q0 39 -23 60.5t-65 21.5q-26 0 -63 -6v174q-74 10 -122.5 29.5t-98.5 58.5q-185 147 -185 416z" />
<glyph unicode="&#xe8;" horiz-adv-x="1087" d="M61 477q0 232 139.5 375t366.5 143q230 0 346 -143q57 -69 81 -153.5t30 -237.5h-684q6 -95 19.5 -147t43.5 -95q66 -92 193 -92q110 0 170 51q28 25 45.5 60t36.5 104h170q-20 -110 -51.5 -171t-94.5 -110q-122 -98 -313 -98q-224 0 -361 141.5t-137 372.5zM227 1386 q0 46 32 77.5t79 31.5q35 0 69 -21t85 -75l276 -293h-113l-325 162q-56 28 -79.5 54.5t-23.5 63.5zM348 604h408q-17 141 -59 198.5t-130 57.5q-91 0 -142.5 -60.5t-76.5 -195.5z" />
<glyph unicode="&#xe9;" horiz-adv-x="1087" d="M61 477q0 232 139.5 375t366.5 143q230 0 346 -143q57 -69 81 -153.5t30 -237.5h-684q6 -95 19.5 -147t43.5 -95q66 -92 193 -92q110 0 170 51q28 25 45.5 60t36.5 104h170q-20 -110 -51.5 -171t-94.5 -110q-122 -98 -313 -98q-224 0 -361 141.5t-137 372.5zM336 1106 l276 293q51 54 85 75t71 21q46 0 77.5 -31.5t31.5 -77.5q0 -37 -23.5 -63.5t-79.5 -54.5l-325 -162h-113zM348 604h408q-17 141 -59 198.5t-130 57.5q-91 0 -142.5 -60.5t-76.5 -195.5z" />
<glyph unicode="&#xea;" horiz-adv-x="1087" d="M61 477q0 232 139.5 375t366.5 143q230 0 346 -143q57 -69 81 -153.5t30 -237.5h-684q6 -95 19.5 -147t43.5 -95q66 -92 193 -92q110 0 170 51q28 25 45.5 60t36.5 104h170q-20 -110 -51.5 -171t-94.5 -110q-122 -98 -313 -98q-224 0 -361 141.5t-137 372.5zM246 1106 l229 369h182l228 -369h-101l-219 170l-219 -170h-100zM348 604h408q-17 141 -59 198.5t-130 57.5q-91 0 -142.5 -60.5t-76.5 -195.5z" />
<glyph unicode="&#xeb;" horiz-adv-x="1087" d="M61 477q0 232 139.5 375t366.5 143q230 0 346 -143q57 -69 81 -153.5t30 -237.5h-684q6 -95 19.5 -147t43.5 -95q66 -92 193 -92q110 0 170 51q28 25 45.5 60t36.5 104h170q-20 -110 -51.5 -171t-94.5 -110q-122 -98 -313 -98q-224 0 -361 141.5t-137 372.5zM209 1290 q0 57 43.5 99.5t101.5 42.5q57 0 98.5 -42t41.5 -102t-40.5 -100.5t-99.5 -40.5q-61 0 -103 41.5t-42 101.5zM348 604h408q-17 141 -59 198.5t-130 57.5q-91 0 -142.5 -60.5t-76.5 -195.5zM596 1290q0 57 43.5 99.5t101.5 42.5q57 0 98.5 -42t41.5 -102t-40.5 -100.5 t-99.5 -40.5q-61 0 -103 41.5t-42 101.5z" />
<glyph unicode="&#xec;" horiz-adv-x="712" d="M51 0v137h74q72 0 94.5 23.5t22.5 97.5v444q0 74 -22.5 97.5t-94.5 23.5h-74v138h438v-703q0 -74 22.5 -97.5t94.5 -23.5h62v-137h-617zM70 1386q0 40 28.5 67.5t69.5 27.5q38 0 67 -21t58 -71l166 -287h-82l-215 155q-48 38 -70 67.5t-22 61.5z" />
<glyph unicode="&#xed;" horiz-adv-x="712" d="M51 0v137h74q72 0 94.5 23.5t22.5 97.5v444q0 74 -22.5 97.5t-94.5 23.5h-74v138h438v-703q0 -74 22.5 -97.5t94.5 -23.5h62v-137h-617zM182 1102l166 287q28 49 57 70.5t68 21.5q43 0 70.5 -27t27.5 -68q0 -33 -21.5 -63t-72.5 -66l-215 -155h-80z" />
<glyph unicode="&#xee;" horiz-adv-x="712" d="M49 1102l193 362h182l192 -362h-94l-188 188l-189 -188h-96zM51 0v137h74q72 0 94.5 23.5t22.5 97.5v444q0 74 -22.5 97.5t-94.5 23.5h-74v138h438v-703q0 -74 23 -97.5t96 -23.5h62v-137h-619z" />
<glyph unicode="&#xef;" horiz-adv-x="712" d="M10 1290q0 57 43.5 99.5t102.5 42.5q57 0 98 -42t41 -102t-40 -100.5t-99 -40.5q-61 0 -103.5 41.5t-42.5 101.5zM51 0v137h74q72 0 94.5 23.5t22.5 97.5v444q0 74 -22.5 97.5t-94.5 23.5h-74v138h438v-703q0 -74 22.5 -97.5t94.5 -23.5h62v-137h-617zM377 1290 q0 57 43.5 99.5t101.5 42.5q57 0 98.5 -42t41.5 -102t-40.5 -100.5t-99.5 -40.5q-61 0 -103 41.5t-42 101.5z" />
<glyph unicode="&#xf0;" horiz-adv-x="1204" d="M63 481q0 227 144.5 369.5t376.5 142.5q65 0 125 -16q-4 7 -9.5 16.5t-9 15.5t-4.5 9q-2 3 -11 17t-21.5 33.5t-26.5 39.5l-19 29l-159 -68l-52 109l150 59q-66 94 -94 129h161l68 -63l184 71l52 -108l-154 -60q221 -258 303 -413t82 -318q0 -229 -149 -369.5 t-392 -140.5q-248 0 -396.5 140.5t-148.5 375.5zM342 485q0 -190 65 -283t199 -93q264 0 264 372q0 371 -264 371t-264 -367z" />
<glyph unicode="&#xf1;" horiz-adv-x="1331" d="M51 0v137h66q72 0 94 23.5t22 97.5v444q0 74 -22 97.5t-94 23.5h-66v138h428v-170q96 113 171.5 156.5t174.5 43.5q66 0 129 -23t101 -61t53.5 -99.5t15.5 -170.5v-379q0 -74 22.5 -97.5t94.5 -23.5h57v-137h-577v137h41q72 0 94.5 23.5t22.5 97.5v379q0 63 -6 91.5 t-23 51.5q-44 54 -123 54q-54 0 -103.5 -26.5t-84.5 -74.5q-34 -45 -47 -93t-13 -134v-248q0 -74 22.5 -97.5t94.5 -23.5h41v-137h-586zM342 1137q34 145 85.5 204.5t143.5 59.5q33 0 78 -10l121 -33q24 -6 47 -6q35 0 54 18.5t38 71.5h82q-20 -82 -37 -122.5t-45 -74.5 q-53 -65 -145 -65q-37 0 -68 8l-116 33q-42 10 -64 10q-35 0 -56.5 -22t-35.5 -72h-82z" />
<glyph unicode="&#xf2;" horiz-adv-x="1200" d="M57 487q0 227 150 367.5t393 140.5q246 0 394.5 -141.5t148.5 -374.5q0 -232 -148 -373t-391 -141q-252 0 -399.5 141t-147.5 381zM283 1386q0 46 31.5 77.5t78.5 31.5q35 0 69 -21t85 -75l276 -293h-112l-326 162q-56 28 -79 54.5t-23 63.5zM336 485q0 -190 65 -283 t199 -93q264 0 264 372q0 371 -264 371t-264 -367z" />
<glyph unicode="&#xf3;" horiz-adv-x="1200" d="M57 487q0 227 150 367.5t393 140.5q246 0 394.5 -141.5t148.5 -374.5q0 -232 -148 -373t-391 -141q-252 0 -399.5 141t-147.5 381zM336 485q0 -190 65 -283t199 -93q264 0 264 372q0 371 -264 371t-264 -367zM391 1106l277 293q51 54 84.5 75t70.5 21q46 0 77.5 -31.5 t31.5 -77.5q0 -37 -23.5 -63.5t-79.5 -54.5l-325 -162h-113z" />
<glyph unicode="&#xf4;" horiz-adv-x="1200" d="M57 487q0 227 150 367.5t393 140.5q246 0 394.5 -141.5t148.5 -374.5q0 -232 -148 -373t-391 -141q-252 0 -399.5 141t-147.5 381zM301 1106l229 369h183l227 -369h-100l-219 170l-220 -170h-100zM336 485q0 -190 65 -283t199 -93q264 0 264 372q0 371 -264 371 t-264 -367z" />
<glyph unicode="&#xf5;" horiz-adv-x="1200" d="M57 487q0 227 150 367.5t393 140.5q246 0 394.5 -141.5t148.5 -374.5q0 -232 -148 -373t-391 -141q-252 0 -399.5 141t-147.5 381zM274 1137q34 145 86 204.5t144 59.5q32 0 80 -10l118 -33q24 -6 48 -6q35 0 54 18.5t38 71.5h82q-19 -81 -35.5 -122t-44.5 -75 q-56 -65 -148 -65q-38 0 -65 8l-117 33q-42 10 -63 10q-70 0 -93 -94h-84zM336 485q0 -190 65 -283t199 -93q264 0 264 372q0 371 -264 371t-264 -367z" />
<glyph unicode="&#xf6;" horiz-adv-x="1200" d="M61 487q0 227 150 367.5t393 140.5q246 0 394.5 -141.5t148.5 -374.5q0 -232 -148 -373t-391 -141q-252 0 -399.5 141t-147.5 381zM279 1290q0 57 43.5 99.5t101.5 42.5q57 0 98 -42t41 -102t-40 -100.5t-99 -40.5q-61 0 -103 41.5t-42 101.5zM340 485q0 -190 65 -283 t199 -93q264 0 264 372q0 371 -264 371t-264 -367zM666 1290q0 57 43.5 99.5t101.5 42.5q57 0 98 -42t41 -102t-40 -100.5t-99 -40.5q-61 0 -103 41.5t-42 101.5z" />
<glyph unicode="&#xf7;" horiz-adv-x="1124" d="M20 489v113h1078v-113h-1078zM432 131q0 54 37.5 90.5t91.5 36.5q51 0 88 -37.5t37 -89.5q0 -53 -37 -90t-90 -37t-90 37t-37 90zM432 948q0 54 37.5 90.5t91.5 36.5q51 0 88 -37.5t37 -89.5t-37 -89.5t-90 -37.5t-90 37.5t-37 89.5z" />
<glyph unicode="&#xf8;" horiz-adv-x="1200" d="M51 16l125 125q-69 105 -93 173.5t-24 166.5q0 232 148.5 373t392.5 141q96 0 163 -18.5t171 -73.5l129 129l88 -84l-127 -127q71 -101 95 -169t24 -173q0 -232 -148.5 -373t-392.5 -141q-103 0 -170 18.5t-166 75.5l-131 -131zM336 479q0 -64 16 -160l445 447 q-60 51 -101.5 68.5t-101.5 17.5q-128 0 -193 -94.5t-65 -278.5zM403 197q58 -52 99.5 -70t103.5 -18q260 0 260 376q0 64 -16 160z" />
<glyph unicode="&#xf9;" horiz-adv-x="1320" d="M51 823v138h410v-637q0 -64 5.5 -92.5t22.5 -51.5q43 -53 123 -53q111 0 189 100q32 43 44.5 92.5t12.5 133.5v249q0 74 -22.5 97.5t-94.5 23.5h-92v138h455v-703q0 -74 23 -97.5t96 -23.5h53v-137h-418v170q-95 -114 -169.5 -157.5t-174.5 -43.5q-66 0 -128.5 23 t-100.5 61t-54 100t-16 171v378q0 74 -22.5 97.5t-94.5 23.5h-47zM281 1386q0 46 31.5 77.5t78.5 31.5q35 0 69 -21t85 -75l276 -293h-112l-326 162q-56 28 -79 54.5t-23 63.5z" />
<glyph unicode="&#xfa;" horiz-adv-x="1320" d="M51 823v138h410v-637q0 -64 5.5 -92.5t22.5 -51.5q43 -53 123 -53q111 0 189 100q32 43 44.5 92.5t12.5 133.5v249q0 74 -22.5 97.5t-94.5 23.5h-92v138h455v-703q0 -74 23 -97.5t96 -23.5h53v-137h-418v170q-95 -114 -169.5 -157.5t-174.5 -43.5q-66 0 -128.5 23 t-100.5 61t-54 100t-16 171v378q0 74 -22.5 97.5t-94.5 23.5h-47zM453 1106l276 293q51 54 85 75t71 21q46 0 77 -31.5t31 -77.5q0 -37 -23 -63.5t-79 -54.5l-326 -162h-112z" />
<glyph unicode="&#xfb;" horiz-adv-x="1320" d="M51 823v138h410v-637q0 -64 5.5 -92.5t22.5 -51.5q43 -53 123 -53q111 0 189 100q32 43 44.5 92.5t12.5 133.5v249q0 74 -22.5 97.5t-94.5 23.5h-92v138h455v-703q0 -74 23 -97.5t96 -23.5h53v-137h-418v170q-95 -114 -169.5 -157.5t-174.5 -43.5q-66 0 -128.5 23 t-100.5 61t-54 100t-16 171v378q0 74 -22.5 97.5t-94.5 23.5h-47zM342 1106l227 369h185l227 -369h-100l-219 170l-220 -170h-100z" />
<glyph unicode="&#xfc;" horiz-adv-x="1320" d="M51 823v138h410v-637q0 -64 5.5 -92.5t22.5 -51.5q43 -53 123 -53q111 0 189 100q32 43 44.5 92.5t12.5 133.5v249q0 74 -22.5 97.5t-94.5 23.5h-92v138h455v-703q0 -74 23 -97.5t96 -23.5h53v-137h-418v170q-95 -114 -169.5 -157.5t-174.5 -43.5q-66 0 -128.5 23 t-100.5 61t-54 100t-16 171v378q0 74 -22.5 97.5t-94.5 23.5h-47zM326 1290q0 57 43.5 99.5t101.5 42.5q57 0 98 -42t41 -102t-40 -100.5t-99 -40.5q-61 0 -103 41.5t-42 101.5zM713 1290q0 57 43.5 99.5t101.5 42.5q57 0 98 -42t41 -102t-40 -100.5t-99 -40.5 q-61 0 -103 41.5t-42 101.5z" />
<glyph unicode="&#xfd;" horiz-adv-x="1189" d="M-10 -182q0 81 47 131.5t121 50.5q61 0 101 -38t40 -97q0 -121 -149 -121q29 -29 49.5 -39t52.5 -10q83 0 139.5 64t128.5 241l-313 700q-29 66 -64 94.5t-86 28.5h-61v138h588v-138h-70q-75 0 -72 -45q0 -23 13 -49l188 -442l168 424q14 40 14 61q0 28 -21 39.5 t-69 11.5h-55v138h491v-138h-45q-91 0 -149 -145l-229 -563q-68 -169 -120.5 -272t-108 -168t-112 -89t-133.5 -24q-123 0 -203.5 73t-80.5 183zM442 1106l277 293q51 54 84.5 75t70.5 21q46 0 77.5 -31.5t31.5 -77.5q0 -37 -23 -63.5t-79 -54.5l-326 -162h-113z" />
<glyph unicode="&#xfe;" d="M20 -301h62q72 0 94.5 23.5t22.5 97.5v1288q0 74 -22.5 97.5t-94.5 23.5h-51v137h413v-573q63 110 134 153t188 43q200 0 310 -134t110 -378t-110 -378t-310 -134q-117 0 -188 43t-134 152v-340q0 -74 22.5 -97.5t94.5 -23.5h90v-137h-631v137zM444 483q0 -164 62.5 -253 t177.5 -89q109 0 166 86t57 250q0 348 -223 348q-115 0 -177.5 -89t-62.5 -253z" />
<glyph unicode="&#xff;" horiz-adv-x="1189" d="M-10 -182q0 81 47 131.5t121 50.5q61 0 101 -38t40 -97q0 -121 -149 -121q29 -29 49.5 -39t52.5 -10q83 0 139.5 64t128.5 241l-313 700q-29 66 -64 94.5t-86 28.5h-61v138h588v-138h-70q-75 0 -72 -45q0 -23 13 -49l188 -442l168 424q14 40 14 61q0 28 -21 39.5 t-69 11.5h-55v138h491v-138h-45q-91 0 -149 -145l-229 -563q-68 -169 -120.5 -272t-108 -168t-112 -89t-133.5 -24q-123 0 -203.5 73t-80.5 183zM258 1290q0 57 43.5 99.5t101.5 42.5q57 0 98.5 -42t41.5 -102t-40.5 -100.5t-99.5 -40.5q-61 0 -103 41.5t-42 101.5z M645 1290q0 57 43.5 99.5t102.5 42.5q57 0 98 -42t41 -102t-40 -100.5t-99 -40.5q-61 0 -103.5 41.5t-42.5 101.5z" />
<glyph unicode="&#x152;" horiz-adv-x="2531" d="M72 682q0 325 209 524t550 199q138 0 330 -19q201 -20 318 -20h903v-543h-156q-5 111 -17 173.5t-40 111.5q-32 57 -99 79.5t-204 22.5h-326v-419h76q146 0 182 59q12 24 17.5 52.5t17.5 135.5h156v-682h-156q-5 68 -9.5 108t-15 75t-23 51t-37 27.5t-53 14.5t-75.5 3 h-80v-479h356q64 0 107 6.5t79 25.5t58 47t39.5 78t27.5 112t19 155h156v-580h-903q-119 0 -318 -20q-195 -19 -330 -19q-225 0 -397.5 90t-267 254t-94.5 377zM391 682q0 -565 514 -565q90 0 179 13.5t128 33.5q25 12 33 35t8 84v800q0 64 -9.5 86.5t-41.5 36.5 q-42 18 -127 30.5t-166 12.5q-261 0 -389.5 -140.5t-128.5 -426.5z" />
<glyph unicode="&#x153;" horiz-adv-x="1871" d="M61 481q0 227 147 370.5t382 143.5q116 0 209 -33t198 -112q94 82 174 113.5t191 31.5q222 0 338 -143q57 -69 80.5 -152.5t31.5 -238.5h-686q3 -94 15 -144.5t41 -93.5q32 -46 84 -72t112 -26q106 0 172 53q30 24 48.5 60t35.5 104h172q-19 -100 -42.5 -152t-73.5 -104 q-63 -63 -137.5 -92t-172.5 -29q-150 0 -266 66q-62 42 -117 106q-72 -77 -139 -114q-116 -58 -264 -58q-238 0 -385.5 142.5t-147.5 373.5zM340 485q0 -192 65 -284t199 -92q133 0 198.5 92t65.5 280q0 371 -264 371t-264 -367zM1135 604h407q-17 146 -59 201t-137 55 q-98 0 -144.5 -56t-66.5 -200z" />
<glyph unicode="&#x178;" horiz-adv-x="1495" d="M0 1210v156h723v-156h-100q-49 0 -68.5 -10t-19.5 -35q0 -26 26 -63l230 -322l243 332q27 38 27 59q0 39 -72 39h-121v156h633v-156h-47q-54 0 -87 -18.5t-73 -71.5l-405 -549v-290q0 -85 21.5 -105t113.5 -20h119v-156h-795v156h119q92 0 113.5 20t21.5 105v290 l-338 500q-53 77 -97 108t-99 31h-68zM463 1620q0 54 42 95.5t97 41.5q57 0 98 -42t41 -99q0 -56 -40.5 -96.5t-96.5 -40.5q-60 0 -100.5 40.5t-40.5 100.5zM844 1620q0 54 42 95.5t97 41.5q57 0 98 -42t41 -99q0 -56 -41 -96.5t-96 -40.5q-60 0 -100.5 40.5t-40.5 100.5z " />
<glyph unicode="&#x2c6;" horiz-adv-x="1024" d="M193 1106l227 369h184l225 -369h-98l-219 170l-219 -170h-100z" />
<glyph unicode="&#x2dc;" horiz-adv-x="1024" d="M186 1137q34 145 86 204.5t144 59.5q32 0 80 -10l118 -33q24 -6 48 -6q35 0 54 18.5t38 71.5h82q-21 -84 -37 -124t-45 -73q-53 -65 -146 -65q-36 0 -67 8l-115 33q-45 10 -66 10q-35 0 -56.5 -22t-35.5 -72h-82z" />
<glyph unicode="&#x2000;" horiz-adv-x="954" />
<glyph unicode="&#x2001;" horiz-adv-x="1909" />
<glyph unicode="&#x2002;" horiz-adv-x="954" />
<glyph unicode="&#x2003;" horiz-adv-x="1909" />
<glyph unicode="&#x2004;" horiz-adv-x="636" />
<glyph unicode="&#x2005;" horiz-adv-x="477" />
<glyph unicode="&#x2006;" horiz-adv-x="318" />
<glyph unicode="&#x2007;" horiz-adv-x="318" />
<glyph unicode="&#x2008;" horiz-adv-x="238" />
<glyph unicode="&#x2009;" horiz-adv-x="381" />
<glyph unicode="&#x200a;" horiz-adv-x="106" />
<glyph unicode="&#x2010;" horiz-adv-x="550" d="M0 377v217h551v-217h-551z" />
<glyph unicode="&#x2011;" horiz-adv-x="550" d="M0 377v217h551v-217h-551z" />
<glyph unicode="&#x2012;" horiz-adv-x="550" d="M0 377v217h551v-217h-551z" />
<glyph unicode="&#x2013;" horiz-adv-x="1140" d="M61 401v170h1018v-170h-1018z" />
<glyph unicode="&#x2014;" horiz-adv-x="1452" d="M0 401v170h1452v-170h-1452z" />
<glyph unicode="&#x2018;" horiz-adv-x="487" d="M102 1063q0 133 88.5 226t239.5 118v-92q-189 -48 -192 -230q46 31 88 31q54 0 87 -35.5t33 -91.5q0 -63 -42 -103t-109 -40q-86 0 -139.5 60t-53.5 157z" />
<glyph unicode="&#x2019;" horiz-adv-x="487" d="M51 1264q0 64 42 103.5t110 39.5q86 0 139 -60t53 -157q0 -135 -88 -228t-239 -116v90q97 26 144 82.5t48 148.5q-44 -30 -88 -30q-54 0 -87.5 35.5t-33.5 91.5z" />
<glyph unicode="&#x201a;" horiz-adv-x="487" d="M51 125q0 63 42 102t110 39q86 0 139 -60t53 -157q0 -134 -88 -226.5t-239 -115.5v90q97 26 143.5 83t48.5 149q-46 -31 -88 -31q-54 0 -87.5 35.5t-33.5 91.5z" />
<glyph unicode="&#x201c;" horiz-adv-x="976" d="M102 1063q0 133 88.5 226t239.5 118v-92q-189 -48 -192 -230q46 31 88 31q54 0 87 -35.5t33 -91.5q0 -63 -42 -103t-109 -40q-86 0 -139.5 60t-53.5 157zM584 1063q0 134 88 226.5t239 117.5v-92q-189 -51 -192 -230q46 31 88 31q54 0 87.5 -35.5t33.5 -91.5 q0 -63 -42.5 -103t-109.5 -40q-86 0 -139 60t-53 157z" />
<glyph unicode="&#x201d;" horiz-adv-x="976" d="M51 1264q0 64 42 103.5t110 39.5q86 0 139 -60t53 -157q0 -135 -88 -228t-239 -116v90q97 26 144 82.5t48 148.5q-44 -30 -88 -30q-54 0 -87.5 35.5t-33.5 91.5zM532 1264q0 63 42.5 103t109.5 40q86 0 139.5 -60t53.5 -157q0 -135 -88.5 -228t-239.5 -116v90 q189 52 192 231q-44 -30 -88 -30q-53 0 -87 36t-34 91z" />
<glyph unicode="&#x201e;" horiz-adv-x="976" d="M51 125q0 63 42 102t110 39q86 0 139 -60t53 -157q0 -133 -88 -225t-239 -117v90q189 52 192 232q-46 -31 -88 -31q-54 0 -87.5 35.5t-33.5 91.5zM532 125q0 63 42 102t110 39q86 0 139.5 -60t53.5 -157q0 -133 -88.5 -225t-239.5 -117v90q97 26 143.5 83t48.5 149 q-46 -31 -88 -31q-54 0 -87.5 35.5t-33.5 91.5z" />
<glyph unicode="&#x2022;" horiz-adv-x="1366" d="M401 692q0 120 83.5 202.5t203.5 82.5q115 0 198 -83.5t83 -199.5q0 -118 -83 -201t-200 -83q-118 0 -201.5 82.5t-83.5 199.5z" />
<glyph unicode="&#x2026;" horiz-adv-x="1892" d="M162 121q0 60 44.5 103.5t106.5 43.5q63 0 107.5 -44t44.5 -107t-44 -107.5t-106 -44.5q-65 0 -109 45t-44 111zM793 121q0 60 44.5 103.5t106.5 43.5q63 0 107.5 -44t44.5 -107t-44 -107.5t-106 -44.5q-65 0 -109 45t-44 111zM1423 121q0 60 45 103.5t107 43.5 q63 0 107 -44t44 -107t-43.5 -107.5t-105.5 -44.5q-65 0 -109.5 45t-44.5 111z" />
<glyph unicode="&#x202f;" horiz-adv-x="381" />
<glyph unicode="&#x2039;" horiz-adv-x="589" d="M123 487q0 66 108 222l80 116h148l-58 -137q-59 -139 -59 -203q0 -61 59 -200l58 -138h-148l-80 117q-108 156 -108 223z" />
<glyph unicode="&#x203a;" horiz-adv-x="589" d="M123 147l57 138q60 142 60 200q0 61 -60 203l-57 137h147l80 -116q50 -71 79.5 -131.5t29.5 -90.5q0 -66 -109 -223l-80 -117h-147z" />
<glyph unicode="&#x205f;" horiz-adv-x="477" />
<glyph unicode="&#x20ac;" horiz-adv-x="1540" d="M61 516l52 121h100q-2 18 -2 49q0 27 2 41h-152l52 121h114q24 140 121 274q100 137 240 210t303 73q116 0 198 -28t201 -111l41 120h146v-559h-156q-19 113 -42.5 174.5t-68.5 112.5q-104 125 -276 125q-154 0 -256 -103t-133 -288h565l-51 -121h-527q-2 -18 -2 -55 q0 -17 2 -35h488l-51 -121h-426q29 -175 132 -272t261 -97t252 105q45 50 69 108t46 168h174q-17 -148 -45.5 -228.5t-88.5 -152.5q-149 -186 -438 -186q-255 0 -441 151.5t-237 403.5h-166z" />
<glyph unicode="&#x2122;" horiz-adv-x="2045" d="M29 1036v330h784v-330h-106q-3 131 -45 181.5t-148 50.5v-516q0 -45 11 -54.5t63 -9.5h78v-100h-490v100h78q52 0 63 9.5t11 54.5v516q-106 2 -149 -50t-44 -182h-106zM872 588v100h52q52 0 62.5 9.5t10.5 54.5v450q0 45 -10.5 54.5t-62.5 9.5h-52v100h396l176 -483 l196 483h377v-100h-53q-52 0 -63 -9.5t-11 -54.5v-450q0 -45 11 -54.5t63 -9.5h53v-100h-434v100h62q52 0 62.5 9.5t10.5 54.5v460l-252 -624h-90l-235 633v-469q0 -45 10.5 -54.5t62.5 -9.5h56v-100h-398z" />
<glyph unicode="&#x25fc;" horiz-adv-x="962" d="M0 0v963h963v-963h-963z" />
</font>
</defs>
</svg>
